<svg id="svg" version="1.1" xmlns="http://www.w3.org/2000/svg" xmlns:xlink="http://www.w3.org/1999/xlink" width="400" height="154.59672870840384" viewBox="0, 0, 400,154.59672870840384"><g id="svgg"><path id="path0" d="M311.750 0.598 C 309.001 0.691,303.895 1.236,301.833 1.655 C 301.421 1.739,300.596 1.894,300.000 1.999 C 297.133 2.502,292.775 3.628,289.583 4.689 C 287.948 5.233,286.972 5.605,283.750 6.914 C 278.092 9.212,269.553 14.198,265.212 17.738 C 265.050 17.870,264.204 18.551,263.333 19.251 C 260.101 21.848,255.880 25.970,252.919 29.421 C 252.370 30.060,251.881 30.621,251.831 30.667 C 251.782 30.712,251.481 31.087,251.162 31.499 C 250.844 31.912,250.492 32.362,250.381 32.499 C 250.128 32.812,249.276 33.956,248.467 35.069 C 248.128 35.535,247.770 36.009,247.671 36.122 C 247.573 36.235,247.328 36.610,247.128 36.956 C 246.927 37.301,246.453 38.033,246.073 38.583 C 245.416 39.536,244.000 41.812,244.000 41.917 C 244.000 41.944,243.713 42.442,243.362 43.025 C 242.638 44.228,240.305 48.872,239.608 50.500 C 239.353 51.096,239.001 51.900,238.827 52.287 C 238.439 53.146,237.405 55.892,236.962 57.242 C 236.783 57.787,236.431 58.537,236.178 58.908 C 232.302 64.617,232.785 71.103,237.436 75.792 C 238.004 76.365,238.510 76.833,238.559 76.833 C 238.609 76.833,238.838 77.008,239.069 77.222 L 239.489 77.611 238.786 78.003 C 236.182 79.452,233.125 83.062,232.436 85.500 C 232.371 85.729,232.194 86.329,232.042 86.833 C 231.578 88.374,231.645 92.727,232.157 94.333 C 234.075 100.343,238.845 104.020,246.333 105.264 C 249.626 105.810,260.901 105.527,263.055 104.844 C 263.346 104.752,264.108 104.519,264.750 104.326 C 265.392 104.133,266.442 103.713,267.083 103.394 L 268.250 102.813 268.500 103.191 C 269.070 104.054,269.522 104.457,270.444 104.924 L 271.417 105.417 277.073 105.469 C 280.184 105.497,282.895 105.479,283.098 105.428 C 283.449 105.340,283.375 105.155,281.608 101.662 C 280.586 99.642,278.993 96.473,278.067 94.620 L 276.384 91.250 278.525 91.203 L 280.667 91.157 280.667 86.854 C 280.667 80.297,280.545 80.169,274.271 80.163 L 270.750 80.160 270.250 79.314 C 269.726 78.427,269.048 77.637,268.592 77.382 C 268.370 77.257,268.594 76.956,269.870 75.657 C 270.721 74.792,271.526 73.858,271.661 73.583 C 271.795 73.308,272.035 72.890,272.194 72.653 C 274.484 69.244,273.951 62.741,271.068 58.892 C 269.446 56.728,265.580 53.667,264.469 53.667 C 264.385 53.667,264.002 53.514,263.617 53.326 C 260.480 51.802,250.029 51.230,246.500 52.390 C 245.333 52.773,245.136 52.555,245.901 51.726 C 246.001 51.618,246.458 50.985,246.917 50.320 C 247.810 49.025,250.320 45.638,250.490 45.500 C 250.546 45.454,250.850 45.079,251.166 44.667 C 251.482 44.254,251.855 43.804,251.995 43.667 C 252.135 43.529,252.625 42.967,253.083 42.417 C 254.452 40.776,259.284 35.998,261.250 34.342 C 262.258 33.492,263.271 32.636,263.500 32.437 C 263.729 32.239,264.179 31.895,264.500 31.672 C 264.821 31.449,265.121 31.220,265.167 31.164 C 265.212 31.107,265.625 30.807,266.083 30.496 C 266.946 29.911,266.975 29.889,267.667 29.314 C 267.896 29.124,268.308 28.852,268.583 28.711 C 268.858 28.569,269.121 28.407,269.167 28.351 C 269.253 28.246,269.836 27.878,272.833 26.040 C 275.259 24.552,281.568 21.488,284.167 20.535 C 284.671 20.350,285.421 20.071,285.833 19.915 C 286.782 19.556,288.431 19.007,289.083 18.833 C 289.358 18.760,290.333 18.477,291.250 18.205 C 292.865 17.726,293.729 17.502,295.208 17.178 C 295.598 17.093,296.254 16.948,296.667 16.856 C 297.381 16.697,298.319 16.528,300.458 16.175 C 301.314 16.034,302.701 15.863,305.250 15.584 C 308.897 15.185,317.884 15.223,322.000 15.654 C 326.921 16.170,329.940 16.662,334.333 17.666 C 339.570 18.862,346.167 21.018,350.917 23.084 C 351.192 23.204,351.752 23.440,352.163 23.609 C 352.573 23.778,353.998 24.469,355.329 25.144 C 357.606 26.297,358.166 26.596,359.708 27.476 C 360.052 27.673,360.586 27.976,360.894 28.151 C 361.966 28.758,362.234 28.917,362.408 29.048 C 362.505 29.120,363.108 29.513,363.750 29.920 C 364.392 30.327,364.992 30.721,365.083 30.796 C 365.175 30.870,366.074 31.490,367.082 32.174 C 368.089 32.857,369.034 33.529,369.182 33.667 C 369.498 33.962,369.758 34.166,371.087 35.166 C 371.635 35.579,372.121 35.955,372.167 36.002 C 372.212 36.049,372.625 36.397,373.083 36.775 C 373.542 37.153,374.217 37.741,374.583 38.082 C 374.950 38.423,375.775 39.126,376.416 39.643 C 378.565 41.376,378.570 41.004,376.377 42.778 C 375.482 43.503,373.791 44.872,372.620 45.820 C 371.448 46.769,370.521 47.577,370.561 47.616 C 370.624 47.680,374.799 48.430,377.333 48.834 C 377.837 48.915,380.238 49.318,382.667 49.731 C 385.096 50.144,388.883 50.788,391.083 51.161 C 393.283 51.534,395.275 51.878,395.509 51.926 C 395.913 52.008,395.931 51.980,395.873 51.381 C 395.816 50.793,394.830 46.537,394.491 45.417 C 394.408 45.142,393.961 43.342,393.498 41.417 C 393.034 39.492,392.583 37.654,392.496 37.333 C 392.409 37.012,391.816 34.623,391.179 32.024 C 390.097 27.615,389.920 27.000,389.779 27.181 C 389.749 27.219,389.206 27.925,388.571 28.750 C 387.936 29.575,387.290 30.400,387.135 30.583 C 386.980 30.767,386.718 31.077,386.552 31.274 C 386.386 31.470,385.541 32.536,384.674 33.643 C 382.868 35.950,383.212 35.938,381.592 33.750 C 380.782 32.656,379.190 30.683,378.834 30.333 C 378.787 30.287,378.213 29.613,377.557 28.833 C 373.653 24.196,361.237 13.667,359.673 13.667 C 359.578 13.667,359.500 13.610,359.499 13.542 C 359.498 13.406,359.517 13.418,356.583 11.728 C 354.768 10.682,349.606 8.053,348.167 7.441 C 345.188 6.176,341.679 4.900,338.333 3.867 C 336.921 3.431,333.521 2.610,331.417 2.196 C 327.276 1.382,326.340 1.239,322.500 0.841 C 320.794 0.664,314.197 0.515,311.750 0.598 M256.704 63.724 C 260.505 65.414,260.393 71.338,256.532 72.721 C 255.316 73.157,251.636 73.117,250.555 72.656 C 246.497 70.925,246.890 64.997,251.167 63.450 C 251.993 63.151,255.844 63.342,256.704 63.724 M257.848 83.607 C 259.700 84.456,260.833 86.451,260.833 88.864 C 260.833 90.994,259.842 92.701,258.111 93.548 C 256.843 94.169,250.639 94.244,249.333 93.654 C 245.040 91.714,245.609 84.709,250.167 83.397 C 251.475 83.020,256.891 83.169,257.848 83.607 M220.167 92.919 C 219.387 93.127,217.700 93.578,216.417 93.921 C 213.524 94.694,211.244 95.296,208.333 96.055 C 207.096 96.378,205.333 96.843,204.417 97.089 C 203.500 97.335,201.963 97.743,201.000 97.997 C 200.037 98.250,197.900 98.815,196.250 99.252 C 194.600 99.689,193.031 100.094,192.762 100.153 C 191.944 100.331,192.089 100.502,195.174 103.000 C 196.816 104.329,198.160 105.504,198.163 105.611 C 198.165 105.718,198.233 105.831,198.313 105.861 C 198.394 105.892,198.825 106.228,199.272 106.608 C 199.718 106.988,200.271 107.456,200.500 107.647 L 200.917 107.994 199.651 109.205 C 198.551 110.258,197.386 111.316,195.833 112.676 C 195.604 112.877,194.892 113.463,194.250 113.978 C 193.608 114.494,193.046 114.955,193.000 115.004 C 192.954 115.052,192.579 115.351,192.167 115.667 C 191.754 115.983,191.379 116.281,191.333 116.329 C 190.406 117.304,183.144 122.283,180.333 123.871 C 180.012 124.052,179.632 124.305,179.487 124.434 C 179.342 124.562,179.177 124.667,179.119 124.667 C 179.062 124.667,178.618 124.902,178.132 125.190 C 177.647 125.478,176.987 125.863,176.667 126.046 C 175.603 126.652,170.101 129.419,169.000 129.902 C 168.404 130.163,167.617 130.508,167.250 130.668 C 166.193 131.131,163.283 132.359,162.917 132.497 C 162.733 132.566,162.396 132.700,162.167 132.796 C 159.753 133.800,151.568 136.423,148.500 137.175 C 148.179 137.254,147.598 137.397,147.208 137.492 C 145.918 137.810,145.263 137.957,143.917 138.233 C 143.183 138.383,142.283 138.574,141.917 138.658 C 141.550 138.742,140.762 138.897,140.167 139.001 C 139.571 139.106,138.746 139.255,138.333 139.332 C 137.921 139.409,137.058 139.551,136.417 139.649 C 135.775 139.747,134.537 139.937,133.667 140.073 C 130.747 140.527,129.985 140.608,123.167 141.188 C 120.206 141.440,107.109 141.439,104.000 141.186 C 97.872 140.688,95.602 140.458,93.083 140.080 C 92.258 139.957,91.021 139.773,90.333 139.673 C 89.646 139.573,88.652 139.418,88.125 139.329 C 87.598 139.240,86.698 139.088,86.125 138.992 C 84.928 138.792,83.546 138.535,82.583 138.333 C 82.217 138.257,81.467 138.105,80.917 137.997 C 78.352 137.492,74.671 136.619,72.167 135.922 C 71.296 135.680,70.038 135.334,69.371 135.154 C 68.704 134.974,67.842 134.726,67.454 134.602 C 67.067 134.479,65.962 134.134,65.000 133.836 C 62.844 133.168,60.047 132.249,59.495 132.028 C 59.268 131.937,58.671 131.713,58.167 131.531 C 56.529 130.939,53.601 129.804,52.877 129.481 C 52.488 129.308,52.072 129.167,51.952 129.167 C 51.832 129.167,51.662 129.103,51.575 129.025 C 51.488 128.947,51.117 128.768,50.750 128.626 C 50.383 128.484,49.633 128.165,49.083 127.916 C 48.533 127.667,47.821 127.351,47.500 127.213 C 43.292 125.399,35.341 121.309,32.295 119.391 C 31.953 119.176,31.629 119.000,31.575 119.000 C 31.521 119.000,31.150 118.775,30.750 118.500 C 30.350 118.225,29.949 118.000,29.859 118.000 C 29.768 118.000,29.669 117.944,29.639 117.875 C 29.568 117.716,27.858 116.667,27.669 116.667 C 27.592 116.667,27.503 116.610,27.472 116.542 C 27.442 116.473,26.292 115.672,24.917 114.762 C 23.542 113.851,22.379 113.059,22.333 113.001 C 22.287 112.944,21.725 112.529,21.083 112.079 C 20.442 111.629,19.879 111.218,19.833 111.164 C 19.787 111.111,19.487 110.887,19.167 110.667 C 18.846 110.446,18.546 110.221,18.500 110.167 C 18.454 110.112,18.154 109.887,17.833 109.667 C 17.512 109.446,17.212 109.225,17.167 109.174 C 17.121 109.123,16.783 108.860,16.417 108.588 C 16.050 108.317,15.650 107.998,15.527 107.879 C 15.405 107.759,15.030 107.457,14.694 107.206 C 14.358 106.955,14.003 106.675,13.905 106.583 C 13.806 106.492,13.364 106.117,12.921 105.750 C 10.805 103.997,8.084 101.571,6.286 99.833 C 3.954 97.580,3.833 97.494,3.833 98.070 C 3.833 99.012,5.554 101.784,7.442 103.884 C 7.705 104.177,8.095 104.642,8.307 104.917 C 8.694 105.416,10.433 107.363,12.167 109.237 C 13.776 110.977,18.551 115.704,20.093 117.083 C 20.913 117.817,21.696 118.529,21.833 118.667 C 22.678 119.512,26.851 123.013,29.083 124.750 C 29.436 125.025,29.806 125.325,29.904 125.418 C 31.036 126.478,41.770 134.000,42.153 134.000 C 42.237 134.000,42.331 134.059,42.361 134.130 C 42.406 134.237,43.661 135.018,46.033 136.417 C 49.954 138.730,56.637 142.241,59.333 143.406 C 59.929 143.663,60.904 144.098,61.500 144.371 C 62.929 145.026,65.918 146.256,67.583 146.873 C 69.087 147.431,71.747 148.395,72.750 148.746 C 73.461 148.995,77.083 150.112,77.917 150.340 C 80.936 151.166,84.912 152.154,86.167 152.390 C 86.396 152.434,87.146 152.595,87.833 152.748 C 89.149 153.041,89.763 153.154,92.333 153.575 C 93.885 153.829,94.873 153.979,97.282 154.327 C 98.828 154.550,126.640 154.563,128.064 154.341 C 128.625 154.254,129.721 154.101,130.500 154.001 C 132.695 153.721,135.086 153.312,137.417 152.818 C 138.333 152.624,139.383 152.402,139.750 152.325 C 140.117 152.248,140.717 152.113,141.083 152.026 C 141.450 151.938,142.125 151.785,142.583 151.686 C 143.042 151.586,143.717 151.423,144.083 151.324 C 144.450 151.225,145.012 151.079,145.333 151.000 C 145.654 150.921,146.179 150.781,146.500 150.689 C 146.821 150.597,147.271 150.472,147.500 150.411 C 149.856 149.783,155.384 147.973,156.917 147.329 C 157.100 147.252,157.550 147.093,157.917 146.977 C 158.283 146.861,158.655 146.706,158.742 146.633 C 158.829 146.560,158.998 146.500,159.118 146.500 C 159.239 146.500,159.655 146.359,160.043 146.186 C 160.432 146.014,161.012 145.776,161.333 145.657 C 161.654 145.538,162.382 145.232,162.950 144.976 C 163.519 144.720,164.269 144.393,164.617 144.248 C 164.965 144.104,165.700 143.783,166.250 143.535 C 167.771 142.851,175.465 138.951,176.466 138.357 C 176.951 138.069,177.375 137.833,177.407 137.833 C 177.440 137.833,178.655 137.111,180.108 136.229 C 181.561 135.346,183.012 134.469,183.333 134.279 C 185.132 133.214,192.339 128.124,194.497 126.394 C 194.636 126.283,195.350 125.719,196.083 125.142 C 196.817 124.564,197.454 124.052,197.500 124.002 C 197.546 123.953,197.996 123.577,198.500 123.167 C 200.308 121.697,203.790 118.550,205.994 116.394 L 208.238 114.198 208.552 114.557 C 209.079 115.160,210.236 116.521,211.266 117.750 C 212.578 119.316,212.845 119.628,213.333 120.169 C 213.563 120.423,214.012 120.958,214.332 121.357 C 215.625 122.969,216.325 123.617,216.329 123.206 C 216.332 122.998,216.443 122.398,216.576 121.872 C 216.710 121.347,216.977 120.054,217.170 119.000 C 217.362 117.946,217.585 116.783,217.665 116.417 C 217.746 116.050,217.896 115.263,218.000 114.667 C 218.104 114.071,218.254 113.283,218.333 112.917 C 218.413 112.550,218.563 111.763,218.667 111.167 C 218.771 110.571,218.920 109.783,218.998 109.417 C 219.170 108.609,219.481 107.020,219.667 106.000 C 219.913 104.647,220.191 103.269,220.447 102.134 C 220.585 101.521,220.658 100.955,220.610 100.876 C 220.539 100.762,221.707 94.416,222.082 92.875 C 222.195 92.410,222.064 92.413,220.167 92.919 " stroke="none" fill="#fbf313" fill-rule="evenodd"></path><path id="path1" d="M371.083 39.854 C 365.784 40.213,357.695 43.059,356.000 45.163 C 355.954 45.220,355.654 45.447,355.333 45.668 C 354.807 46.031,353.879 46.844,352.671 48.000 C 349.474 51.059,347.114 55.563,346.252 60.250 C 345.890 62.214,345.890 83.953,346.252 85.917 C 347.325 91.749,350.928 97.686,355.177 100.622 C 355.401 100.777,355.683 101.000,355.804 101.119 C 356.325 101.628,357.472 102.342,359.708 103.549 C 361.851 104.706,364.665 105.641,368.167 106.361 C 369.633 106.662,376.324 106.664,377.917 106.363 C 389.308 104.213,397.704 96.753,399.746 86.967 C 400.124 85.155,400.124 61.678,399.746 59.867 C 399.224 57.366,397.884 54.108,396.527 52.042 C 395.851 51.012,395.870 51.024,395.967 51.685 C 396.034 52.140,396.003 52.190,395.712 52.098 C 395.531 52.040,394.077 51.775,392.483 51.508 C 390.888 51.241,388.908 50.901,388.083 50.752 C 386.435 50.455,381.329 49.577,379.750 49.318 C 379.200 49.228,378.300 49.080,377.750 48.987 C 377.200 48.895,376.375 48.758,375.917 48.682 C 375.458 48.606,374.071 48.376,372.833 48.171 C 371.596 47.965,370.525 47.744,370.455 47.678 C 370.384 47.613,372.090 46.140,374.247 44.405 L 378.168 41.250 377.524 40.641 C 376.701 39.862,374.656 39.613,371.083 39.854 M24.417 40.993 C 22.836 41.128,21.669 41.357,19.083 42.036 C 14.726 43.181,9.798 46.094,6.833 49.276 C 3.291 53.079,1.564 56.412,0.517 61.471 C 0.263 62.700,0.263 83.467,0.517 84.696 C 1.066 87.349,1.499 88.670,2.639 91.167 C 5.470 97.368,12.154 102.592,19.917 104.671 C 23.241 105.561,22.826 105.539,37.292 105.616 L 50.833 105.689 50.832 90.386 C 50.831 73.247,50.896 74.167,49.609 72.913 C 48.327 71.664,48.344 71.667,40.689 71.667 L 34.000 71.667 34.000 81.417 L 34.000 91.167 30.042 91.167 C 23.154 91.166,20.240 89.382,18.473 84.083 L 18.083 82.917 18.083 73.167 C 18.083 62.832,18.086 62.789,18.890 61.000 C 19.826 58.917,21.865 56.861,23.794 56.054 C 25.497 55.342,25.666 55.333,38.008 55.333 L 49.833 55.333 49.833 49.588 C 49.833 42.821,49.729 42.434,47.583 41.276 C 46.890 40.902,28.160 40.673,24.417 40.993 M60.000 71.375 C 60.000 105.295,59.914 102.755,61.110 104.153 C 62.356 105.608,62.166 105.577,69.958 105.634 L 76.833 105.684 76.833 96.009 L 76.833 86.333 77.829 86.333 C 78.734 86.333,78.852 86.375,79.117 86.792 C 79.278 87.044,79.453 87.287,79.507 87.333 C 79.561 87.379,80.146 88.204,80.808 89.167 C 81.470 90.129,82.702 91.898,83.547 93.097 C 84.392 94.295,85.679 96.133,86.407 97.180 C 87.136 98.227,87.776 99.121,87.830 99.167 C 87.884 99.212,88.376 99.922,88.922 100.742 C 92.078 105.479,92.673 105.667,104.527 105.667 L 112.993 105.667 112.803 105.250 C 112.699 105.021,112.550 104.833,112.473 104.833 C 112.396 104.833,112.333 104.727,112.333 104.597 C 112.333 104.467,112.274 104.336,112.201 104.306 C 112.129 104.275,111.654 103.650,111.146 102.917 C 110.349 101.766,108.131 98.601,107.407 97.583 C 107.276 97.400,106.536 96.350,105.761 95.250 C 104.986 94.150,104.287 93.175,104.208 93.083 C 104.129 92.991,103.605 92.233,103.044 91.398 C 102.482 90.563,101.924 89.776,101.803 89.648 C 101.682 89.521,101.024 88.592,100.340 87.583 C 99.656 86.575,99.000 85.651,98.882 85.530 C 98.764 85.409,98.666 85.259,98.666 85.196 C 98.666 85.134,98.441 84.821,98.167 84.500 C 97.495 83.715,97.519 83.641,98.625 83.105 C 101.590 81.666,105.166 78.683,106.750 76.327 C 107.025 75.918,107.329 75.499,107.426 75.396 C 107.522 75.293,107.964 74.468,108.407 73.562 C 108.850 72.657,109.278 71.785,109.359 71.623 C 109.660 71.019,109.976 69.905,110.490 67.635 C 110.717 66.630,110.720 61.619,110.493 60.467 C 109.968 57.787,109.369 56.081,108.107 53.667 C 105.094 47.902,99.024 43.462,91.917 41.824 C 87.977 40.916,88.614 40.950,73.792 40.877 L 60.000 40.810 60.000 71.375 M131.189 41.285 C 131.084 41.541,130.887 42.181,130.749 42.708 C 130.612 43.235,130.392 44.060,130.261 44.542 C 130.129 45.023,129.904 45.848,129.761 46.375 C 129.450 47.516,129.026 49.055,128.830 49.750 C 128.753 50.025,128.540 50.813,128.358 51.500 C 127.772 53.706,127.493 54.719,127.070 56.167 C 126.843 56.946,126.585 57.846,126.498 58.167 C 126.237 59.130,125.671 61.210,125.500 61.833 C 125.083 63.356,124.675 64.874,124.335 66.167 C 124.130 66.946,123.859 67.883,123.732 68.250 C 123.606 68.617,123.384 69.367,123.238 69.917 C 122.561 72.479,122.299 73.454,122.167 73.917 C 122.088 74.192,121.863 75.017,121.667 75.750 C 121.471 76.483,121.246 77.308,121.167 77.583 C 121.088 77.858,120.874 78.646,120.691 79.333 C 120.509 80.021,120.238 80.996,120.089 81.500 C 119.641 83.025,119.540 83.375,119.254 84.417 C 119.102 84.967,118.865 85.829,118.726 86.333 C 118.587 86.837,118.336 87.775,118.167 88.417 C 117.998 89.058,117.741 90.015,117.596 90.542 C 117.201 91.982,116.824 93.347,116.641 94.000 C 116.551 94.321,116.420 94.852,116.350 95.180 C 116.280 95.507,116.177 95.848,116.122 95.937 C 116.067 96.026,115.861 96.695,115.664 97.424 C 115.467 98.153,115.152 99.313,114.964 100.000 C 114.268 102.540,114.388 103.514,115.531 104.617 C 116.613 105.661,116.657 105.667,123.825 105.667 L 130.327 105.667 130.425 105.208 C 130.652 104.141,131.212 101.861,131.418 101.167 C 131.540 100.754,131.842 99.535,132.090 98.458 L 132.540 96.500 142.167 96.500 L 151.794 96.500 151.897 96.875 C 151.953 97.081,152.231 98.188,152.514 99.333 C 153.378 102.832,154.219 104.177,156.134 105.117 L 157.083 105.583 164.208 105.633 C 170.455 105.677,171.333 105.652,171.333 105.433 C 171.333 105.210,171.167 104.545,170.641 102.667 C 170.551 102.346,170.413 101.821,170.333 101.500 C 170.254 101.179,170.115 100.654,170.026 100.333 C 169.681 99.103,169.341 97.856,168.914 96.251 C 168.669 95.335,168.429 94.520,168.379 94.440 C 168.295 94.302,168.172 93.867,167.833 92.500 C 167.754 92.179,167.615 91.654,167.526 91.333 C 167.242 90.322,166.871 88.962,166.500 87.583 C 166.179 86.388,165.926 85.460,165.500 83.917 C 165.424 83.642,165.240 83.004,165.092 82.500 C 164.944 81.996,164.681 81.058,164.508 80.417 C 164.083 78.844,163.313 76.040,162.997 74.917 C 162.920 74.642,162.707 73.854,162.525 73.167 C 161.880 70.733,161.441 69.148,160.841 67.083 C 160.567 66.141,159.688 62.931,158.833 59.750 C 158.512 58.555,158.259 57.626,157.833 56.083 C 157.757 55.808,157.574 55.171,157.425 54.667 C 157.277 54.163,157.014 53.225,156.841 52.583 C 156.525 51.412,156.227 50.322,155.736 48.542 C 155.590 48.015,155.409 47.358,155.333 47.083 C 155.258 46.808,155.075 46.133,154.929 45.583 C 154.383 43.541,153.265 42.120,151.564 41.306 L 150.750 40.917 141.064 40.869 L 131.379 40.821 131.189 41.285 M175.872 71.697 C 175.921 105.813,175.822 102.933,176.999 104.226 C 178.297 105.652,177.687 105.577,188.458 105.631 C 193.706 105.658,198.000 105.634,198.000 105.578 C 198.000 105.432,197.796 105.252,195.750 103.588 C 194.742 102.768,193.879 102.055,193.833 102.005 C 193.787 101.954,193.352 101.584,192.865 101.182 C 191.794 100.299,191.769 100.326,194.250 99.671 C 195.350 99.381,196.813 98.993,197.500 98.809 C 198.188 98.625,199.594 98.255,200.625 97.987 C 205.275 96.779,206.351 96.498,207.875 96.096 C 209.655 95.626,212.232 94.941,213.667 94.557 C 214.942 94.215,218.113 93.387,219.984 92.908 C 220.846 92.687,221.690 92.462,221.859 92.409 C 222.286 92.273,222.278 92.353,221.417 96.722 C 220.523 101.258,220.540 100.944,221.208 100.478 C 223.970 98.552,226.379 94.696,227.338 90.667 C 227.616 89.498,227.626 85.487,227.353 84.403 C 226.599 81.406,225.544 79.124,224.086 77.339 C 223.219 76.279,221.843 74.914,221.086 74.363 C 220.626 74.028,220.175 73.694,220.083 73.620 C 219.796 73.389,218.115 72.344,217.930 72.282 C 217.724 72.213,217.960 71.966,218.917 71.252 C 219.787 70.601,221.299 69.091,221.921 68.250 C 222.193 67.883,222.461 67.546,222.517 67.500 C 222.574 67.454,222.960 66.774,223.376 65.989 C 228.521 56.279,222.281 45.014,210.050 41.932 C 205.874 40.879,206.929 40.937,190.706 40.871 L 175.828 40.811 175.872 71.697 M312.167 40.993 C 310.952 41.106,310.043 41.271,307.863 41.777 C 299.222 43.782,291.764 50.246,289.199 57.952 C 288.729 59.363,288.549 60.114,288.174 62.236 C 288.066 62.847,288.000 66.913,288.000 72.917 C 288.000 83.970,288.083 85.000,289.243 88.417 C 289.704 89.775,290.989 92.490,291.334 92.833 C 291.380 92.879,291.515 93.108,291.636 93.342 C 293.651 97.263,299.909 102.119,305.275 103.925 C 310.249 105.598,309.613 105.544,325.042 105.622 L 338.500 105.689 338.500 90.171 C 338.500 72.012,338.663 73.309,336.226 72.094 L 335.368 71.667 328.601 71.667 L 321.833 71.667 321.833 81.417 L 321.833 91.167 317.925 91.167 C 314.994 91.167,313.777 91.104,313.060 90.918 C 309.925 90.101,307.293 87.518,306.350 84.333 C 306.228 83.921,306.062 83.366,305.981 83.100 C 305.706 82.198,305.797 63.823,306.082 62.716 C 306.971 59.261,309.684 56.464,313.001 55.581 C 313.763 55.378,315.909 55.337,325.800 55.335 L 337.683 55.333 337.633 49.542 C 337.574 42.613,337.575 42.620,335.417 41.319 L 334.750 40.917 324.083 40.897 C 318.217 40.887,312.854 40.930,312.167 40.993 M375.615 54.663 C 379.276 55.865,381.715 58.977,382.316 63.215 C 382.560 64.937,382.566 81.907,382.323 83.551 C 380.667 94.760,366.076 95.140,363.844 84.033 C 363.590 82.766,363.602 63.107,363.858 62.044 C 365.217 56.403,370.607 53.019,375.615 54.663 M85.897 55.511 C 87.353 55.887,87.784 56.041,88.811 56.547 C 89.780 57.024,92.000 58.967,92.000 59.337 C 92.000 59.413,92.094 59.575,92.208 59.696 C 93.307 60.858,93.781 64.018,93.154 66.003 C 91.742 70.477,88.511 71.982,80.292 71.995 L 76.833 72.000 76.833 63.667 L 76.833 55.333 81.022 55.333 C 83.444 55.333,85.501 55.408,85.897 55.511 M203.350 55.514 C 208.751 57.237,208.955 64.202,203.667 66.317 C 203.226 66.493,201.810 66.568,197.875 66.623 L 192.667 66.695 192.667 61.014 L 192.667 55.333 197.725 55.333 C 200.901 55.333,202.994 55.401,203.350 55.514 M142.425 58.625 C 142.577 59.330,143.494 63.177,143.668 63.833 C 143.752 64.154,144.270 66.217,144.819 68.417 C 145.367 70.617,146.003 73.167,146.232 74.083 C 147.281 78.292,148.167 81.934,148.167 82.045 C 148.167 82.112,145.459 82.167,142.149 82.167 C 136.712 82.167,136.141 82.141,136.233 81.901 C 136.289 81.755,136.376 81.436,136.426 81.193 C 136.476 80.949,136.584 80.487,136.667 80.167 C 136.750 79.846,136.975 78.908,137.167 78.083 C 137.495 76.674,137.596 76.262,137.993 74.708 C 138.081 74.365,138.273 73.596,138.419 73.000 C 139.342 69.231,141.237 61.681,141.494 60.750 C 141.569 60.475,141.730 59.781,141.850 59.208 C 142.086 58.085,142.269 57.899,142.425 58.625 M205.935 80.032 C 209.518 81.923,210.286 87.064,207.375 89.681 C 205.829 91.071,205.253 91.167,198.454 91.167 L 192.667 91.167 192.667 85.324 L 192.667 79.481 198.875 79.532 L 205.083 79.583 205.935 80.032 " stroke="none" fill="#046404" fill-rule="evenodd"></path><path id="path2" d="" stroke="none" fill="#589607" fill-rule="evenodd"></path><path id="path3" d="" stroke="none" fill="#8cb40c" fill-rule="evenodd"></path><path id="path4" d="" stroke="none" fill="#7cac0c" fill-rule="evenodd"></path></g></svg>