<svg id="svg" version="1.1" xmlns="http://www.w3.org/2000/svg" xmlns:xlink="http://www.w3.org/1999/xlink" width="400" height="634.368855682265" viewBox="0, 0, 400,634.368855682265"><g id="svgg"><path id="path0" d="M186.385 0.276 C 182.582 0.537,177.185 1.026,176.122 1.205 C 175.639 1.286,173.914 1.523,172.289 1.731 C 167.750 2.313,162.081 3.264,158.361 4.069 C 155.067 4.782,152.930 5.266,151.355 5.655 C 150.482 5.870,148.817 6.278,147.654 6.560 C 145.283 7.135,140.795 8.396,139.987 8.714 C 139.696 8.829,138.566 9.186,137.475 9.508 C 136.385 9.830,135.254 10.190,134.964 10.308 C 134.673 10.427,133.662 10.782,132.716 11.099 C 131.771 11.416,130.791 11.784,130.539 11.918 C 130.286 12.052,129.930 12.165,129.746 12.170 C 129.562 12.175,128.936 12.409,128.354 12.690 C 127.773 12.971,127.118 13.206,126.900 13.211 C 126.682 13.217,126.206 13.375,125.843 13.561 C 125.479 13.748,124.587 14.119,123.860 14.386 C 122.493 14.888,121.879 15.145,119.630 16.152 C 118.903 16.477,117.832 16.940,117.250 17.180 C 114.279 18.406,108.417 21.286,102.251 24.548 C 100.011 25.733,90.754 31.202,90.020 31.774 C 89.874 31.887,88.447 32.835,86.847 33.881 C 83.784 35.883,78.327 39.779,75.876 41.714 C 75.076 42.345,74.240 43.003,74.019 43.176 C 73.103 43.889,69.641 46.682,69.369 46.927 C 69.207 47.072,68.319 47.845,67.395 48.645 C 62.833 52.594,60.731 54.549,56.450 58.825 C 53.001 62.270,48.697 66.864,47.548 68.329 C 47.211 68.758,46.636 69.423,46.270 69.806 C 45.344 70.776,44.406 71.885,43.581 72.986 C 43.196 73.501,42.634 74.213,42.334 74.569 C 41.521 75.532,39.067 78.631,38.496 79.417 C 35.885 83.012,34.704 84.649,34.369 85.141 C 34.151 85.461,33.849 85.857,33.698 86.020 C 33.547 86.184,33.137 86.794,32.787 87.376 C 32.436 87.958,32.078 88.493,31.992 88.566 C 31.905 88.638,31.589 89.114,31.289 89.623 C 30.989 90.132,29.775 92.075,28.591 93.940 C 27.407 95.806,26.438 97.372,26.438 97.421 C 26.438 97.471,25.886 98.443,25.212 99.582 C 20.582 107.402,14.511 120.303,11.982 127.693 C 11.609 128.784,11.213 129.795,11.102 129.941 C 10.991 130.086,10.813 130.621,10.707 131.130 C 10.601 131.639,10.427 132.174,10.321 132.320 C 10.215 132.465,9.680 134.012,9.132 135.757 C 8.584 137.502,7.987 139.405,7.803 139.987 C 7.620 140.568,7.205 142.115,6.881 143.424 C 6.556 144.732,6.193 146.041,6.074 146.332 C 5.955 146.623,5.601 148.050,5.287 149.504 C 4.973 150.958,4.615 152.445,4.492 152.809 C 4.369 153.173,4.129 154.243,3.960 155.188 C 3.791 156.134,3.487 157.740,3.286 158.757 C -1.611 183.518,-1.014 213.066,4.878 237.541 C 6.684 245.045,7.430 247.739,9.082 252.743 C 10.893 258.231,12.807 263.490,13.746 265.565 C 13.878 265.856,14.414 267.165,14.939 268.473 C 16.071 271.301,16.405 272.022,19.539 278.387 C 21.956 283.298,24.074 287.394,24.325 287.640 C 24.652 287.963,27.423 293.349,35.684 309.716 C 45.015 328.203,56.676 351.295,62.519 362.855 C 72.648 382.895,92.693 422.581,102.379 441.771 C 105.938 448.824,111.559 459.947,114.871 466.490 C 120.541 477.693,125.023 486.568,141.041 518.308 C 144.710 525.578,150.541 537.118,154.000 543.952 C 157.458 550.787,162.989 561.732,166.291 568.275 C 169.593 574.818,175.630 586.775,179.706 594.845 C 183.782 602.915,189.956 615.139,193.426 622.009 C 196.896 628.880,199.875 634.501,200.045 634.501 C 200.215 634.501,201.060 633.103,201.924 631.395 C 202.787 629.686,206.468 622.399,210.103 615.202 C 218.647 598.286,231.496 572.856,237.353 561.269 C 239.889 556.252,245.267 545.605,249.304 537.607 C 253.342 529.610,260.012 516.404,264.127 508.262 C 268.241 500.119,273.470 489.769,275.746 485.261 C 278.022 480.753,283.310 470.284,287.496 461.996 C 305.430 426.489,309.870 417.697,315.866 405.816 C 319.352 398.909,324.673 388.381,327.691 382.419 C 330.708 376.457,336.420 365.155,340.383 357.303 C 344.346 349.451,350.681 336.900,354.461 329.412 C 371.092 296.464,375.012 288.770,375.750 287.626 C 376.808 285.989,381.390 277.006,382.890 273.629 C 383.117 273.120,383.680 271.870,384.141 270.853 C 384.603 269.835,385.394 267.991,385.899 266.755 C 386.404 265.519,386.988 264.130,387.198 263.669 C 387.408 263.209,387.653 262.462,387.743 262.012 C 387.833 261.561,388.011 261.128,388.137 261.050 C 388.264 260.971,388.367 260.724,388.367 260.500 C 388.367 260.276,388.541 259.718,388.753 259.260 C 390.092 256.363,393.609 244.555,395.142 237.806 C 395.373 236.788,395.731 235.241,395.937 234.369 C 399.840 217.853,401.102 193.794,399.093 174.223 C 398.177 165.308,396.667 156.861,394.329 147.588 C 394.119 146.751,393.758 145.294,393.528 144.349 C 393.297 143.404,393.003 142.333,392.873 141.970 C 392.743 141.606,392.375 140.416,392.055 139.326 C 391.323 136.828,389.951 132.689,388.945 129.941 C 388.520 128.777,387.845 126.933,387.446 125.843 C 387.047 124.752,386.488 123.325,386.203 122.670 C 385.919 122.016,385.508 121.064,385.290 120.555 C 382.888 114.933,379.709 108.249,377.745 104.693 C 377.383 104.038,376.636 102.670,376.083 101.652 C 375.531 100.635,374.255 98.434,373.248 96.761 C 370.990 93.014,370.835 92.761,370.587 92.414 C 370.477 92.260,369.178 90.293,367.698 88.042 C 366.219 85.791,364.909 83.828,364.787 83.680 C 364.175 82.940,363.598 82.192,363.120 81.522 C 362.377 80.481,359.244 76.339,358.906 75.951 C 358.567 75.563,358.494 75.472,356.509 72.968 C 355.644 71.877,354.696 70.741,354.402 70.442 C 354.107 70.144,353.525 69.490,353.107 68.988 C 349.160 64.249,339.170 54.199,334.192 49.958 C 333.259 49.163,332.188 48.230,331.813 47.884 C 331.437 47.538,330.297 46.587,329.280 45.770 C 328.262 44.953,327.369 44.220,327.297 44.141 C 327.224 44.062,325.856 42.995,324.256 41.771 C 322.657 40.547,321.289 39.470,321.216 39.376 C 321.143 39.283,320.794 39.054,320.440 38.867 C 320.085 38.680,319.669 38.423,319.514 38.295 C 317.961 37.009,312.397 33.213,308.863 31.029 C 307.296 30.060,305.269 28.806,304.357 28.243 C 302.792 27.276,302.140 26.909,297.951 24.643 C 297.006 24.131,295.578 23.356,294.779 22.919 C 292.727 21.799,289.635 20.257,287.773 19.426 C 286.900 19.036,285.592 18.439,284.865 18.099 C 282.228 16.866,279.814 15.800,278.519 15.296 C 277.792 15.013,276.841 14.622,276.404 14.428 C 275.968 14.234,273.886 13.458,271.778 12.703 C 269.670 11.948,267.762 11.234,267.539 11.118 C 267.316 11.002,266.722 10.818,266.217 10.710 C 265.713 10.602,265.182 10.422,265.036 10.311 C 264.891 10.199,264.359 10.019,263.855 9.911 C 263.351 9.803,262.756 9.617,262.533 9.498 C 262.311 9.379,261.236 9.028,260.145 8.719 C 259.055 8.409,257.865 8.047,257.502 7.914 C 256.651 7.603,247.890 5.377,245.473 4.859 C 233.654 2.322,224.675 1.039,213.351 0.269 C 209.229 -0.012,190.487 -0.007,186.385 0.276 M212.690 30.932 C 219.363 31.591,220.863 31.760,224.455 32.254 C 230.133 33.035,235.204 34.025,241.243 35.532 C 247.070 36.986,255.092 39.410,257.145 40.337 C 257.603 40.544,258.161 40.714,258.385 40.714 C 258.609 40.714,258.866 40.833,258.956 40.978 C 259.046 41.124,259.302 41.243,259.526 41.243 C 259.750 41.243,260.308 41.407,260.766 41.608 C 261.225 41.808,262.254 42.231,263.054 42.547 C 263.853 42.863,264.746 43.228,265.036 43.357 C 265.327 43.487,266.160 43.844,266.887 44.150 C 269.784 45.370,270.500 45.709,276.124 48.532 C 283.269 52.117,288.391 54.989,291.809 57.326 C 292.206 57.597,293.245 58.283,294.118 58.850 C 294.990 59.417,295.763 59.941,295.836 60.013 C 295.909 60.086,296.742 60.673,297.687 61.319 C 298.632 61.964,299.703 62.716,300.066 62.989 C 300.430 63.262,301.560 64.105,302.578 64.861 C 303.596 65.618,304.666 66.435,304.957 66.678 C 305.248 66.920,306.021 67.553,306.675 68.083 C 307.330 68.613,308.105 69.245,308.397 69.487 C 308.690 69.729,309.345 70.267,309.852 70.682 C 313.638 73.784,323.958 83.821,326.453 86.828 C 327.225 87.759,328.177 88.865,328.568 89.287 C 329.844 90.661,330.851 91.854,331.645 92.930 C 332.074 93.510,332.501 94.045,332.594 94.118 C 332.884 94.343,337.680 100.786,338.797 102.452 C 339.379 103.319,339.974 104.163,340.119 104.328 C 340.902 105.217,346.241 113.857,348.103 117.250 C 350.566 121.739,354.887 130.798,356.237 134.303 C 356.769 135.684,357.315 137.052,357.450 137.343 C 358.754 140.154,361.781 149.515,363.263 155.321 C 370.365 183.147,370.201 210.020,362.756 238.202 C 362.468 239.293,362.095 240.720,361.926 241.375 C 361.758 242.029,361.521 242.802,361.400 243.093 C 361.279 243.384,360.880 244.574,360.514 245.737 C 359.678 248.396,358.551 251.654,358.229 252.346 C 358.094 252.637,357.548 254.005,357.016 255.387 C 356.484 256.768,355.825 258.397,355.552 259.007 C 355.280 259.617,355.056 260.175,355.056 260.247 C 355.056 260.590,349.295 272.520,348.977 272.836 C 348.903 272.908,348.659 273.325,348.433 273.761 C 347.642 275.288,346.727 276.934,346.596 277.065 C 346.335 277.327,345.503 278.794,345.359 279.247 C 345.279 279.501,345.120 279.709,345.008 279.709 C 344.895 279.709,344.728 280.007,344.637 280.370 C 344.546 280.734,344.354 281.031,344.212 281.031 C 344.069 281.031,343.952 281.153,343.952 281.301 C 343.952 281.622,342.585 283.768,342.300 283.895 C 342.191 283.944,342.102 284.143,342.102 284.339 C 342.102 284.535,341.949 284.852,341.761 285.044 C 341.574 285.236,341.132 285.869,340.778 286.451 C 340.178 287.439,340.007 287.681,339.326 288.509 C 339.180 288.686,338.705 289.365,338.269 290.020 C 337.833 290.674,337.417 291.269,337.343 291.342 C 337.270 291.414,336.885 291.950,336.488 292.531 C 336.091 293.113,335.469 293.946,335.106 294.382 C 334.743 294.818,334.352 295.294,334.238 295.440 C 330.230 300.561,329.845 301.033,328.222 302.822 C 327.931 303.142,327.158 304.034,326.504 304.804 C 324.945 306.636,317.929 313.747,315.379 316.079 C 314.276 317.087,312.849 318.392,312.206 318.978 C 311.563 319.565,310.448 320.517,309.727 321.093 C 309.006 321.670,308.218 322.320,307.976 322.538 C 306.787 323.610,301.478 327.731,299.801 328.883 C 299.483 329.101,299.005 329.458,298.738 329.676 C 297.129 330.990,288.047 336.814,287.609 336.814 C 287.481 336.814,287.376 336.919,287.376 337.048 C 287.376 337.176,287.168 337.347,286.913 337.428 C 286.461 337.572,284.994 338.403,284.732 338.665 C 284.567 338.830,283.538 339.378,279.841 341.273 C 278.242 342.092,276.894 342.852,276.845 342.961 C 276.797 343.070,276.661 343.159,276.543 343.159 C 276.425 343.159,274.740 343.921,272.798 344.852 C 270.856 345.782,267.779 347.153,265.962 347.897 C 264.144 348.642,262.450 349.367,262.198 349.510 C 261.945 349.652,261.589 349.769,261.405 349.770 C 261.221 349.771,260.756 349.936,260.372 350.136 C 259.988 350.337,258.917 350.756,257.993 351.068 C 257.068 351.380,256.074 351.740,255.783 351.868 C 255.492 351.996,254.184 352.417,252.875 352.805 C 251.566 353.192,250.258 353.609,249.967 353.731 C 249.676 353.854,248.933 354.083,248.315 354.240 C 247.697 354.398,246.685 354.657,246.067 354.814 C 245.449 354.972,244.706 355.203,244.415 355.328 C 244.124 355.452,243.470 355.628,242.961 355.718 C 242.452 355.809,241.738 355.983,241.375 356.105 C 241.011 356.228,239.822 356.526,238.731 356.769 C 237.640 357.011,236.034 357.372,235.162 357.571 C 214.080 362.375,185.983 362.279,163.781 357.327 C 159.388 356.347,154.151 355.019,152.809 354.546 C 152.445 354.418,150.542 353.815,148.579 353.206 C 145.243 352.172,141.199 350.796,139.987 350.283 C 139.696 350.160,138.387 349.631,137.079 349.107 C 135.770 348.583,134.324 347.982,133.866 347.772 C 133.408 347.561,132.962 347.389,132.875 347.389 C 132.357 347.389,119.024 340.842,118.487 340.324 C 118.295 340.139,118.015 339.987,117.865 339.987 C 117.580 339.987,111.705 336.525,108.526 334.484 C 105.203 332.350,103.772 331.402,103.469 331.132 C 103.305 330.985,102.910 330.687,102.590 330.469 C 101.601 329.795,97.445 326.777,97.026 326.429 C 96.808 326.248,96.213 325.810,95.704 325.455 C 95.195 325.101,94.719 324.744,94.646 324.664 C 94.574 324.583,93.087 323.337,91.342 321.895 C 89.597 320.454,87.977 319.086,87.743 318.857 C 87.508 318.628,86.276 317.488,85.004 316.325 C 82.393 313.937,75.405 306.894,73.856 305.089 C 73.295 304.435,72.523 303.543,72.141 303.106 C 69.600 300.202,67.343 297.470,67.038 296.931 C 66.904 296.692,66.656 296.378,66.489 296.233 C 66.322 296.087,65.781 295.433,65.287 294.779 C 64.793 294.124,64.327 293.529,64.250 293.457 C 64.174 293.384,63.865 292.968,63.565 292.531 C 63.265 292.095,62.438 290.905,61.727 289.888 C 58.209 284.848,54.387 278.788,51.972 274.422 C 51.032 272.721,45.737 262.069,45.737 261.878 C 45.737 261.823,45.329 260.906,44.831 259.839 C 44.333 258.771,43.844 257.570,43.744 257.169 C 43.645 256.767,43.458 256.374,43.328 256.294 C 43.199 256.214,43.089 255.947,43.084 255.702 C 43.079 255.456,42.845 254.779,42.564 254.197 C 42.283 253.615,42.050 252.951,42.045 252.721 C 42.040 252.491,41.954 252.221,41.855 252.121 C 41.755 252.021,41.515 251.496,41.321 250.953 C 40.520 248.708,39.156 244.551,38.612 242.697 C 38.292 241.606,37.924 240.416,37.795 240.053 C 37.665 239.689,37.370 238.619,37.140 237.673 C 36.910 236.728,36.562 235.301,36.367 234.501 C 34.449 226.639,33.165 219.249,32.511 212.293 C 32.367 210.767,32.132 208.353,31.987 206.930 C 31.648 203.582,31.648 188.225,31.987 184.874 C 32.131 183.451,32.376 180.978,32.532 179.379 C 33.028 174.283,33.705 169.735,34.738 164.574 C 34.941 163.556,35.248 162.023,35.419 161.166 C 35.591 160.310,35.951 158.764,36.219 157.730 C 36.488 156.695,37.075 154.441,37.523 152.720 C 38.403 149.337,39.758 144.985,40.347 143.648 C 40.549 143.190,40.714 142.714,40.714 142.591 C 40.715 142.315,42.963 136.337,43.498 135.188 C 43.712 134.730,43.886 134.277,43.886 134.182 C 43.886 134.087,44.131 133.451,44.430 132.768 C 44.728 132.085,45.076 131.289,45.202 130.998 C 46.399 128.231,49.970 120.816,50.231 120.555 C 50.304 120.482,50.596 119.947,50.880 119.365 C 51.164 118.784,51.967 117.323,52.664 116.119 C 53.362 114.915,53.933 113.814,53.933 113.673 C 53.933 113.532,54.052 113.417,54.197 113.417 C 54.342 113.417,54.461 113.308,54.461 113.174 C 54.461 112.506,63.113 99.440,64.420 98.133 C 64.614 97.939,64.774 97.700,64.776 97.602 C 64.779 97.503,65.106 97.046,65.503 96.585 C 65.901 96.125,66.523 95.368,66.887 94.904 C 68.805 92.453,71.106 89.668,71.910 88.823 C 72.274 88.440,73.220 87.364,74.014 86.430 C 75.798 84.332,84.032 76.099,86.716 73.731 C 88.772 71.917,93.608 67.866,94.962 66.824 C 95.389 66.495,96.117 65.901,96.580 65.503 C 97.043 65.106,97.503 64.779,97.602 64.776 C 97.700 64.774,97.938 64.622,98.130 64.438 C 99.164 63.449,106.017 58.748,110.377 56.038 C 112.819 54.520,113.585 54.062,115.298 53.098 C 115.645 52.903,115.988 52.683,116.061 52.611 C 116.396 52.276,127.208 46.777,129.676 45.686 C 135.629 43.055,143.745 39.861,146.728 38.976 C 147.383 38.782,148.751 38.371,149.769 38.064 C 161.942 34.383,170.900 32.593,183.609 31.302 C 192.207 30.428,205.831 30.255,212.690 30.932 M191.276 52.361 C 187.328 52.599,182.564 53.050,180.304 53.401 C 179.359 53.548,177.812 53.786,176.867 53.931 C 158.186 56.799,140.492 63.253,123.728 73.313 C 121.765 74.491,120.040 75.554,119.894 75.675 C 119.749 75.796,118.678 76.518,117.515 77.278 C 115.233 78.770,108.322 83.901,106.798 85.236 C 106.284 85.686,105.222 86.590,104.439 87.244 C 99.189 91.629,90.558 100.393,86.865 105.089 C 86.294 105.816,85.753 106.471,85.664 106.543 C 85.334 106.814,82.198 110.993,80.408 113.549 C 79.389 115.003,78.455 116.312,78.331 116.457 C 78.207 116.603,77.819 117.198,77.468 117.779 C 77.116 118.361,76.755 118.896,76.664 118.969 C 76.573 119.042,76.417 119.280,76.319 119.498 C 76.220 119.716,75.124 121.560,73.883 123.596 C 71.978 126.722,66.094 138.047,66.094 138.588 C 66.094 138.683,65.752 139.512,65.335 140.431 C 64.917 141.350,64.361 142.697,64.099 143.424 C 63.838 144.151,63.541 144.865,63.441 145.010 C 63.341 145.155,63.174 145.631,63.070 146.067 C 62.966 146.504,62.722 147.217,62.529 147.654 C 62.152 148.502,60.788 152.515,60.281 154.263 C 60.113 154.845,59.800 155.915,59.587 156.642 C 59.010 158.606,58.168 161.785,57.905 162.987 C 57.777 163.569,57.426 165.175,57.123 166.557 C 56.257 170.510,55.452 175.930,54.687 182.948 C 54.267 186.799,54.261 204.999,54.679 208.857 C 55.266 214.289,56.299 221.479,56.845 223.926 C 57.606 227.342,59.006 233.130,59.211 233.708 C 59.340 234.071,59.705 235.261,60.023 236.352 C 61.145 240.201,61.395 240.987,61.760 241.811 C 61.962 242.269,62.129 242.745,62.130 242.869 C 62.131 243.160,63.874 247.866,64.382 248.949 C 64.596 249.408,64.772 249.845,64.772 249.922 C 64.772 249.999,65.139 250.874,65.587 251.865 C 66.035 252.857,66.586 254.085,66.813 254.594 C 67.928 257.098,69.757 260.784,70.943 262.921 C 71.670 264.230,72.443 265.658,72.660 266.094 C 73.126 267.027,77.237 273.700,77.466 273.893 C 77.552 273.966,77.909 274.501,78.259 275.083 C 78.610 275.664,79.020 276.285,79.171 276.461 C 79.681 277.060,79.972 277.459,80.763 278.652 C 81.497 279.758,82.796 281.528,83.410 282.257 C 83.556 282.430,83.972 282.967,84.336 283.451 C 89.218 289.944,98.070 299.133,105.054 304.957 C 105.752 305.539,106.759 306.401,107.292 306.874 C 107.825 307.346,108.342 307.733,108.441 307.733 C 108.540 307.733,108.826 307.939,109.078 308.191 C 109.516 308.628,115.455 313.071,116.490 313.736 C 116.763 313.911,118.116 314.809,119.498 315.731 C 127.152 320.841,134.533 324.637,146.596 329.665 C 148.648 330.521,156.017 333.021,158.030 333.545 C 158.794 333.744,160.043 334.074,160.806 334.280 C 164.516 335.279,166.380 335.752,167.664 336.020 C 172.003 336.924,172.981 337.116,175.149 337.490 C 176.457 337.715,178.896 338.069,180.568 338.276 C 182.241 338.483,183.906 338.712,184.270 338.784 C 188.927 339.711,212.830 339.703,216.034 338.773 C 216.273 338.703,217.879 338.471,219.603 338.256 C 224.987 337.585,230.159 336.613,236.219 335.130 C 239.327 334.370,243.893 333.094,244.292 332.875 C 244.514 332.752,245.105 332.562,245.605 332.452 C 246.104 332.342,246.695 332.156,246.918 332.037 C 247.141 331.918,248.453 331.446,249.835 330.988 C 251.216 330.529,252.703 329.993,253.139 329.797 C 253.576 329.600,255.003 329.009,256.312 328.483 C 257.621 327.956,259.048 327.368,259.484 327.175 C 264.228 325.080,267.519 323.466,269.601 322.213 C 270.513 321.665,271.328 321.216,271.412 321.216 C 271.757 321.216,280.660 315.806,281.956 314.808 C 282.102 314.696,282.875 314.170,283.675 313.638 C 284.989 312.764,288.168 310.468,288.830 309.915 C 288.976 309.793,289.807 309.164,290.677 308.515 C 292.072 307.476,293.116 306.630,294.088 305.748 C 294.250 305.602,294.798 305.141,295.307 304.723 C 299.895 300.959,309.145 291.719,312.009 288.040 C 312.347 287.605,312.802 287.060,313.020 286.829 C 313.926 285.870,318.051 280.564,319.307 278.745 C 319.492 278.475,320.513 277.006,321.574 275.479 C 322.635 273.952,324.020 271.811,324.651 270.720 C 325.283 269.630,325.898 268.698,326.019 268.649 C 326.140 268.601,326.239 268.438,326.239 268.288 C 326.239 268.137,326.641 267.344,327.131 266.525 C 329.291 262.922,334.435 252.726,334.435 252.048 C 334.435 251.929,335.216 250.090,335.769 248.909 C 336.624 247.081,340.516 235.582,340.516 234.882 C 340.516 234.669,340.625 234.287,340.758 234.035 C 340.892 233.782,341.257 232.505,341.570 231.196 C 341.882 229.888,342.241 228.401,342.368 227.892 C 345.818 214.001,346.945 193.232,345.007 179.247 C 344.855 178.156,344.622 176.431,344.489 175.413 C 344.166 172.953,343.483 168.828,343.155 167.350 C 342.414 164.017,340.995 158.149,340.789 157.568 C 340.660 157.204,340.295 156.015,339.977 154.924 C 339.163 152.129,337.620 147.476,337.326 146.930 C 337.190 146.678,337.079 146.339,337.079 146.177 C 337.079 146.015,336.908 145.508,336.700 145.050 C 336.492 144.592,335.893 143.146,335.369 141.837 C 334.315 139.201,334.043 138.615,331.152 132.716 C 327.616 125.503,324.124 119.658,319.630 113.430 C 319.121 112.725,318.526 111.884,318.308 111.563 C 317.102 109.785,312.129 103.616,310.641 102.053 C 310.278 101.672,309.578 100.890,309.087 100.316 C 306.705 97.534,300.884 91.792,297.308 88.698 C 296.300 87.825,295.284 86.933,295.050 86.715 C 294.256 85.976,291.150 83.509,288.830 81.775 C 288.103 81.232,287.364 80.664,287.187 80.513 C 286.472 79.901,286.075 79.620,283.410 77.835 C 277.710 74.017,274.757 72.221,269.531 69.393 C 266.100 67.536,259.859 64.508,259.464 64.508 C 259.387 64.508,258.765 64.261,258.082 63.960 C 257.399 63.658,256.424 63.236,255.915 63.022 C 255.406 62.807,254.808 62.533,254.585 62.413 C 254.362 62.294,253.798 62.112,253.332 62.009 C 252.866 61.907,252.417 61.713,252.334 61.579 C 252.251 61.445,252.000 61.335,251.776 61.335 C 251.552 61.335,250.994 61.163,250.536 60.952 C 249.403 60.431,242.673 58.227,240.714 57.736 C 239.841 57.517,238.473 57.161,237.673 56.944 C 223.648 53.136,206.515 51.444,191.276 52.361 M107.799 111.594 C 108.781 112.051,110.813 113.005,112.316 113.714 C 113.819 114.423,115.097 115.003,115.157 115.003 C 115.216 115.003,116.366 115.523,117.712 116.158 C 119.057 116.793,120.991 117.702,122.009 118.178 C 123.027 118.654,125.083 119.621,126.579 120.328 C 128.074 121.034,129.358 121.613,129.432 121.613 C 129.507 121.613,130.782 122.193,132.266 122.902 C 133.750 123.612,135.856 124.609,136.946 125.118 C 142.096 127.522,143.233 128.050,144.217 128.492 C 144.798 128.753,146.557 129.573,148.125 130.313 C 149.693 131.053,151.074 131.659,151.194 131.659 C 152.451 131.659,154.299 134.535,154.932 137.475 C 155.104 138.275,155.402 139.643,155.594 140.516 C 155.785 141.388,156.199 143.291,156.512 144.746 C 156.826 146.200,157.237 148.103,157.426 148.976 C 157.615 149.848,157.975 151.514,158.225 152.677 C 158.475 153.840,158.839 155.506,159.035 156.378 C 159.231 157.250,159.521 158.559,159.679 159.286 C 159.838 160.013,160.079 161.084,160.215 161.666 C 160.541 163.057,161.263 166.268,161.419 167.017 L 161.542 167.610 226.640 167.678 C 299.994 167.755,292.860 167.532,294.426 169.792 L 295.175 170.873 295.246 197.306 C 295.316 223.283,295.308 223.757,294.788 224.824 C 293.456 227.555,292.658 227.987,286.186 229.484 C 284.878 229.786,283.391 230.149,282.882 230.289 C 282.373 230.430,281.064 230.734,279.974 230.965 C 278.883 231.196,277.277 231.557,276.404 231.766 C 275.532 231.976,274.104 232.308,273.232 232.504 C 271.760 232.835,270.162 233.212,266.490 234.095 C 265.691 234.287,264.144 234.651,263.054 234.903 C 261.963 235.156,260.416 235.521,259.617 235.715 C 256.299 236.519,253.837 237.090,248.381 238.319 C 246.907 238.651,245.282 239.035,241.639 239.911 C 240.839 240.103,239.293 240.467,238.202 240.720 C 237.112 240.972,235.565 241.336,234.765 241.527 C 233.966 241.718,232.479 242.070,231.461 242.309 C 230.443 242.548,228.956 242.900,228.156 243.091 C 227.356 243.283,225.572 243.696,224.190 244.009 C 221.120 244.706,218.711 245.265,216.788 245.727 C 215.988 245.919,214.442 246.283,213.351 246.536 C 212.260 246.789,210.714 247.152,209.914 247.343 C 209.114 247.534,207.627 247.886,206.609 248.125 C 205.592 248.364,204.104 248.716,203.305 248.907 C 202.505 249.099,200.720 249.512,199.339 249.825 C 196.269 250.522,193.860 251.081,191.937 251.543 C 191.137 251.736,189.590 252.100,188.500 252.352 C 187.409 252.605,185.803 252.984,184.931 253.194 C 184.058 253.405,182.709 253.700,181.933 253.851 C 180.669 254.097,180.540 254.184,180.687 254.690 C 180.777 255.000,181.045 256.295,181.282 257.566 L 181.713 259.877 236.329 259.945 C 290.353 260.012,290.956 260.019,291.986 260.542 C 294.988 262.068,294.917 265.683,291.854 267.207 L 290.681 267.790 234.123 267.801 C 198.478 267.808,177.265 267.718,176.754 267.557 C 176.307 267.417,175.644 267.243,175.281 267.171 C 174.917 267.099,174.115 266.712,173.498 266.311 C 172.198 265.465,172.492 266.276,169.825 256.180 C 169.613 255.380,169.225 253.833,168.961 252.743 C 168.697 251.652,168.238 249.808,167.940 248.645 C 167.642 247.482,167.271 245.816,167.115 244.944 C 166.825 243.322,166.284 240.730,165.598 237.673 C 165.386 236.728,165.044 235.182,164.838 234.237 C 164.271 231.633,163.752 229.294,163.254 227.098 C 163.007 226.008,162.568 223.985,162.280 222.604 C 161.991 221.223,161.594 219.379,161.397 218.506 C 160.484 214.462,160.235 213.341,159.811 211.368 C 159.561 210.205,159.198 208.539,159.004 207.667 C 158.810 206.794,158.469 205.248,158.245 204.230 C 158.022 203.212,157.660 201.606,157.441 200.661 C 157.222 199.716,156.795 197.753,156.491 196.299 C 156.187 194.845,155.765 192.882,155.552 191.937 C 155.340 190.991,154.998 189.445,154.792 188.500 C 154.205 185.806,153.696 183.514,153.206 181.362 C 152.958 180.271,152.579 178.546,152.364 177.528 C 151.943 175.541,151.425 173.196,150.845 170.654 C 150.646 169.782,150.221 167.819,149.901 166.292 C 148.881 161.436,148.499 159.703,147.362 154.792 C 147.160 153.919,146.804 152.313,146.570 151.223 C 146.123 149.131,145.733 147.344,145.012 144.085 C 144.771 142.994,144.447 141.491,144.291 140.743 C 144.020 139.450,143.942 139.356,142.658 138.783 C 141.916 138.452,139.837 137.487,138.038 136.638 C 136.240 135.790,134.730 135.096,134.684 135.096 C 134.637 135.096,133.432 134.547,132.005 133.875 C 128.086 132.031,122.076 129.239,120.423 128.493 C 119.031 127.865,114.266 125.644,108.790 123.070 C 107.773 122.591,106.107 121.822,105.089 121.362 C 101.833 119.888,101.402 119.644,100.677 118.873 C 99.533 117.656,99.057 116.409,99.237 115.101 C 99.394 113.950,100.522 111.831,100.976 111.831 C 101.109 111.831,101.389 111.660,101.598 111.451 C 102.738 110.311,105.164 110.367,107.799 111.594 M163.913 178.471 C 163.913 178.626,164.160 179.845,164.463 181.181 C 165.320 184.964,165.691 186.622,166.158 188.764 C 166.395 189.855,166.725 191.208,166.891 191.772 L 167.192 192.798 169.188 192.633 C 170.285 192.543,172.730 192.404,174.620 192.324 C 176.510 192.244,178.689 192.115,179.461 192.037 L 180.866 191.894 180.706 191.056 C 180.410 189.498,179.486 185.201,179.247 184.270 C 179.116 183.761,178.751 182.184,178.437 180.767 L 177.865 178.189 170.889 178.189 C 166.126 178.189,163.913 178.278,163.913 178.471 M182.490 179.313 C 182.558 179.931,182.819 181.447,183.070 182.683 C 183.930 186.918,184.267 188.634,184.548 190.211 C 184.703 191.080,184.852 191.803,184.880 191.818 C 185.017 191.892,193.638 191.437,195.325 191.267 L 197.258 191.072 197.088 189.984 C 196.994 189.386,196.813 188.539,196.687 188.103 C 196.560 187.667,196.281 186.477,196.067 185.459 C 195.852 184.442,195.407 182.389,195.077 180.899 L 194.478 178.189 188.422 178.189 L 182.366 178.189 182.490 179.313 M203.954 178.652 C 204.052 178.906,204.315 180.007,204.538 181.097 C 204.762 182.188,205.099 183.794,205.288 184.666 C 205.477 185.539,205.820 187.197,206.051 188.351 C 206.581 191.003,206.420 190.893,209.385 190.624 C 210.767 190.499,214.187 190.313,216.986 190.211 C 221.247 190.055,222.075 189.960,222.075 189.629 C 222.075 189.169,221.140 185.039,220.772 183.873 C 220.634 183.437,220.445 182.604,220.353 182.022 C 220.260 181.441,220.084 180.668,219.962 180.304 C 219.839 179.941,219.668 179.316,219.580 178.916 L 219.422 178.189 211.599 178.189 C 204.258 178.189,203.788 178.217,203.954 178.652 M222.604 178.555 C 222.604 178.757,222.794 179.560,223.027 180.340 C 223.701 182.599,224.072 183.946,224.860 186.989 L 225.598 189.841 226.679 189.708 C 227.273 189.635,229.901 189.510,232.518 189.430 C 242.323 189.130,242.157 189.180,241.400 186.755 C 241.269 186.333,240.981 185.155,240.762 184.137 C 240.542 183.120,240.156 181.365,239.904 180.238 L 239.445 178.189 231.025 178.189 C 224.026 178.189,222.604 178.251,222.604 178.555 M248.787 178.519 C 248.792 178.701,248.970 179.623,249.183 180.568 C 249.396 181.514,249.756 183.239,249.983 184.402 C 250.900 189.100,250.199 188.730,257.237 188.236 C 259.346 188.088,262.480 187.896,264.202 187.809 L 267.334 187.651 267.205 186.687 C 267.033 185.408,266.297 181.266,265.976 179.775 C 265.836 179.121,265.715 178.496,265.709 178.387 C 265.687 178.016,248.776 178.148,248.787 178.519 M268.424 179.180 C 269.765 187.879,269.740 187.788,270.688 187.587 C 271.456 187.423,281.274 186.926,283.873 186.918 L 285.525 186.913 285.525 182.551 L 285.525 178.189 276.898 178.189 L 268.271 178.189 268.424 179.180 M280.238 189.569 C 278.711 189.671,275.886 189.848,273.959 189.961 C 271.011 190.135,270.457 190.234,270.461 190.589 C 270.464 190.821,270.646 192.022,270.865 193.258 C 271.084 194.494,271.337 196.025,271.426 196.660 L 271.589 197.814 273.468 197.640 C 274.501 197.544,276.001 197.358,276.801 197.226 C 277.601 197.095,279.891 196.783,281.890 196.533 L 285.525 196.079 285.525 192.686 L 285.525 189.293 284.270 189.338 C 283.579 189.363,281.765 189.467,280.238 189.569 M265.124 190.483 C 265.052 190.555,262.056 190.775,258.469 190.970 C 254.881 191.165,251.872 191.398,251.782 191.487 C 251.632 191.637,251.781 192.419,252.926 197.488 C 253.572 200.347,253.489 200.209,254.422 200.012 C 254.880 199.915,256.742 199.658,258.559 199.440 C 266.142 198.531,268.233 198.293,268.672 198.287 C 269.210 198.281,269.279 197.077,268.854 195.109 C 268.713 194.455,268.466 193.116,268.305 192.135 L 268.013 190.350 266.635 190.350 C 265.877 190.350,265.197 190.410,265.124 190.483 M237.806 192.226 C 236.352 192.345,233.286 192.549,230.993 192.679 C 228.701 192.809,226.762 192.978,226.685 193.055 C 226.550 193.190,226.872 194.653,227.717 197.753 C 227.935 198.553,228.307 199.980,228.544 200.924 C 229.110 203.186,228.904 203.100,232.666 202.659 C 245.195 201.189,244.370 201.358,244.205 200.293 C 244.039 199.216,243.020 194.267,242.863 193.774 C 242.796 193.563,242.669 193.063,242.581 192.664 C 242.401 191.838,242.473 191.845,237.806 192.226 M214.151 193.685 C 207.003 194.094,207.146 194.066,207.409 195.045 C 207.728 196.236,208.312 198.844,208.606 200.397 C 209.296 204.041,209.720 205.420,210.148 205.414 C 210.549 205.409,212.059 205.235,220.225 204.256 C 222.042 204.038,223.929 203.777,224.418 203.676 L 225.306 203.491 225.134 202.198 C 225.040 201.486,224.857 200.641,224.727 200.320 C 224.598 199.999,224.237 198.546,223.926 197.092 C 223.615 195.638,223.252 194.180,223.120 193.853 C 222.838 193.155,223.272 193.163,214.151 193.685 M195.902 194.851 C 194.957 194.960,192.239 195.137,189.863 195.245 L 185.543 195.440 185.699 196.134 C 185.785 196.515,186.025 197.720,186.232 198.810 C 186.439 199.901,186.666 200.972,186.737 201.190 C 186.808 201.408,187.131 203.044,187.453 204.825 C 187.919 207.398,188.128 208.062,188.468 208.058 C 188.892 208.053,194.054 207.457,197.621 207.001 C 198.638 206.871,199.748 206.760,200.087 206.753 C 200.767 206.740,200.770 206.864,200.000 203.437 C 199.804 202.564,199.391 200.661,199.083 199.207 C 198.323 195.629,198.030 194.574,197.808 194.616 C 197.705 194.636,196.847 194.742,195.902 194.851 M175.810 196.080 C 174.865 196.122,172.742 196.293,171.092 196.460 L 168.094 196.764 168.218 197.721 C 168.329 198.575,168.705 200.371,169.856 205.552 C 170.050 206.424,170.355 207.822,170.534 208.658 C 170.906 210.395,170.828 210.370,174.356 209.918 C 175.373 209.788,177.336 209.554,178.718 209.399 C 180.099 209.243,181.985 208.982,182.908 208.819 L 184.586 208.522 184.402 207.698 C 184.301 207.245,184.053 206.130,183.852 205.221 C 183.650 204.311,183.317 202.824,183.111 201.916 C 182.905 201.008,182.563 199.418,182.351 198.383 C 181.783 195.614,182.290 195.793,175.810 196.080 M282.750 206.088 C 281.441 206.274,279.021 206.612,277.371 206.839 C 273.625 207.353,273.278 207.459,273.493 208.018 C 273.585 208.258,273.825 209.526,274.026 210.836 C 274.415 213.368,275.337 218.715,275.637 220.176 C 275.830 221.118,276.422 221.175,278.784 220.476 C 280.748 219.896,282.603 219.427,284.005 219.158 L 285.525 218.865 285.525 212.275 C 285.525 208.650,285.436 205.699,285.327 205.716 C 285.218 205.734,284.058 205.901,282.750 206.088 M269.081 207.940 C 269.003 208.018,267.585 208.251,265.930 208.459 C 254.588 209.879,255.563 209.473,256.288 212.470 C 256.494 213.318,256.918 215.202,257.231 216.656 C 257.544 218.110,257.980 220.073,258.200 221.018 C 259.227 225.427,259.087 225.206,260.569 224.745 C 260.990 224.614,262.763 224.193,264.508 223.809 C 266.252 223.426,268.037 223.008,268.473 222.882 C 268.909 222.755,270.248 222.437,271.447 222.174 C 272.647 221.912,273.628 221.634,273.628 221.556 C 273.627 221.478,273.438 220.344,273.208 219.035 C 272.978 217.726,272.635 215.763,272.445 214.673 C 272.256 213.582,271.966 211.976,271.803 211.104 C 271.639 210.231,271.442 209.131,271.365 208.658 C 271.232 207.841,269.671 207.350,269.081 207.940 M241.639 211.778 C 239.676 212.039,236.722 212.431,235.073 212.649 C 233.425 212.866,232.019 213.101,231.949 213.171 C 231.839 213.281,232.578 216.217,234.124 221.811 C 234.345 222.611,234.634 223.681,234.765 224.190 C 234.897 224.699,235.186 225.770,235.407 226.570 C 235.629 227.369,235.936 228.529,236.091 229.147 C 236.245 229.765,236.508 230.271,236.674 230.271 C 237.029 230.271,242.471 229.043,243.622 228.703 C 244.058 228.574,245.635 228.197,247.125 227.865 C 250.238 227.171,250.178 227.267,249.439 224.146 C 249.221 223.225,248.928 221.937,248.788 221.282 C 248.649 220.628,248.362 219.319,248.150 218.374 C 247.579 215.820,246.983 213.067,246.791 212.095 C 246.589 211.080,246.782 211.091,241.639 211.778 M226.781 213.756 C 226.704 213.834,225.286 214.076,223.631 214.296 C 221.976 214.515,219.313 214.874,217.713 215.094 C 216.114 215.313,214.169 215.562,213.392 215.646 C 211.984 215.799,211.980 215.802,212.110 216.624 C 212.279 217.699,215.254 231.619,215.919 234.452 C 216.070 235.095,217.111 235.115,218.903 234.510 C 219.266 234.387,220.456 234.089,221.547 233.847 C 225.170 233.044,228.014 232.369,228.817 232.122 C 229.253 231.988,230.116 231.799,230.734 231.702 C 232.027 231.499,232.067 231.353,231.472 229.011 C 231.260 228.177,230.841 226.424,230.540 225.116 C 230.240 223.807,229.883 222.320,229.748 221.811 C 229.612 221.302,229.247 219.755,228.937 218.374 C 227.869 213.620,227.566 212.971,226.781 213.756 M197.621 217.853 C 195.876 218.121,193.576 218.422,192.510 218.522 C 189.948 218.763,190.014 218.445,191.250 224.587 C 191.454 225.605,191.823 227.449,192.069 228.685 C 192.314 229.921,192.683 231.765,192.889 232.783 C 193.094 233.800,193.460 235.853,193.702 237.343 C 194.212 240.481,193.961 240.336,197.452 239.518 C 202.310 238.380,203.198 238.164,203.966 237.933 C 204.402 237.802,205.275 237.613,205.905 237.514 L 207.052 237.334 206.922 236.116 C 206.794 234.912,206.063 231.228,205.289 227.892 C 205.070 226.946,204.771 225.578,204.626 224.851 C 204.481 224.124,204.198 222.816,203.997 221.943 C 203.796 221.071,203.479 219.673,203.294 218.837 L 202.956 217.317 201.874 217.341 C 201.280 217.355,199.365 217.585,197.621 217.853 M184.752 219.567 C 184.621 219.697,181.365 220.160,176.008 220.811 C 174.590 220.983,173.430 221.189,173.431 221.269 C 173.431 221.674,175.382 230.810,177.257 239.194 C 177.477 240.176,177.791 241.672,177.955 242.521 C 178.225 243.919,178.306 244.047,178.816 243.888 C 179.126 243.792,180.390 243.485,181.626 243.205 C 182.862 242.926,184.646 242.514,185.592 242.288 C 186.537 242.063,188.083 241.716,189.028 241.516 C 191.602 240.973,191.673 240.929,191.501 239.963 C 191.357 239.153,190.601 235.726,190.092 233.576 C 189.786 232.282,189.378 230.433,188.895 228.156 C 188.695 227.211,188.344 225.605,188.116 224.587 C 187.887 223.569,187.559 221.993,187.385 221.084 L 187.070 219.432 185.978 219.432 C 185.378 219.432,184.826 219.492,184.752 219.567 M188.004 271.917 C 195.643 274.582,198.577 283.407,193.410 288.181 C 191.737 289.727,191.260 290.086,190.260 290.552 C 184.643 293.166,179.279 291.905,175.402 287.059 C 169.796 280.052,179.139 268.825,188.004 271.917 M284.765 271.913 C 293.201 274.823,295.481 283.648,289.197 289.066 C 279.584 297.354,265.042 285.747,272.671 275.876 C 275.413 272.327,280.826 270.554,284.765 271.913 M284.600 376.631 C 283.926 377.151,276.614 381.494,276.413 381.494 C 276.330 381.494,275.759 381.813,275.143 382.204 C 273.563 383.207,265.738 387.063,261.203 389.075 C 260.403 389.429,259.511 389.826,259.220 389.957 C 257.087 390.915,248.620 394.075,246.001 394.890 C 244.838 395.252,243.648 395.647,243.358 395.768 C 241.621 396.488,234.360 398.396,228.685 399.623 C 203.188 405.138,178.344 403.849,154.421 395.770 C 152.242 395.034,150.125 394.258,149.717 394.045 C 149.309 393.832,148.825 393.658,148.641 393.657 C 148.458 393.656,148.101 393.542,147.848 393.403 C 147.596 393.265,146.973 392.976,146.464 392.762 C 145.955 392.547,144.980 392.125,144.297 391.823 C 143.615 391.522,142.953 391.276,142.828 391.276 C 142.436 391.276,131.381 385.618,128.966 384.181 C 127.704 383.430,126.544 382.816,126.389 382.816 C 126.234 382.816,126.107 382.697,126.107 382.551 C 126.107 382.406,125.996 382.287,125.861 382.287 C 125.618 382.287,121.501 379.759,120.910 379.247 C 120.742 379.101,119.941 378.574,119.130 378.074 C 116.717 376.587,117.506 376.901,122.963 379.597 C 125.812 381.003,128.547 382.319,129.041 382.521 C 129.536 382.722,130.654 383.210,131.527 383.604 C 132.399 383.998,133.571 384.471,134.130 384.654 C 134.689 384.838,135.463 385.153,135.848 385.354 C 136.234 385.556,136.734 385.721,136.960 385.722 C 137.185 385.723,137.482 385.828,137.621 385.956 C 137.865 386.183,143.157 388.116,145.274 388.753 C 145.856 388.928,146.510 389.144,146.728 389.234 C 146.946 389.323,147.601 389.530,148.182 389.694 C 148.764 389.858,149.835 390.170,150.562 390.386 C 152.502 390.965,158.774 392.595,160.608 392.998 C 167.839 394.587,172.531 395.424,177.660 396.042 C 178.896 396.191,180.681 396.427,181.626 396.567 C 187.207 397.392,209.673 397.578,216.259 396.853 C 231.188 395.211,242.943 392.747,255.387 388.650 C 258.077 387.765,260.516 386.935,260.806 386.806 C 261.097 386.678,261.930 386.367,262.657 386.115 C 263.384 385.863,264.336 385.503,264.772 385.315 C 265.208 385.127,266.695 384.533,268.077 383.995 C 269.458 383.457,271.213 382.734,271.976 382.388 C 272.740 382.041,274.048 381.448,274.884 381.069 C 277.719 379.785,281.950 377.766,283.410 377.001 C 285.059 376.137,285.363 376.042,284.600 376.631 " stroke="none" fill="#046404" fill-rule="evenodd"></path><path id="path1" d="" stroke="none" fill="#086404" fill-rule="evenodd"></path></g></svg>