<svg id="svg" version="1.1" xmlns="http://www.w3.org/2000/svg" xmlns:xlink="http://www.w3.org/1999/xlink" width="400" height="400" viewBox="0, 0, 400,400"><g id="svgg"><path id="path0" d="M188.100 0.273 C 187.165 0.368,186.400 0.616,186.400 0.823 C 186.400 1.030,185.860 1.200,185.200 1.200 C 184.540 1.200,184.000 1.380,184.000 1.600 C 184.000 1.820,183.460 2.000,182.800 2.000 C 182.140 2.000,181.600 2.180,181.600 2.400 C 181.600 2.620,181.240 2.800,180.800 2.800 C 180.360 2.800,180.000 2.980,180.000 3.200 C 180.000 3.420,179.640 3.600,179.200 3.600 C 178.760 3.600,178.400 3.780,178.400 4.000 C 178.400 4.220,178.040 4.400,177.600 4.400 C 177.160 4.400,176.800 4.580,176.800 4.800 C 176.800 5.020,176.452 5.200,176.027 5.200 C 175.602 5.200,175.140 5.560,175.000 6.000 C 174.860 6.440,174.470 6.800,174.134 6.800 C 173.797 6.800,173.022 7.334,172.413 7.986 C 171.804 8.638,171.192 9.058,171.053 8.919 C 170.914 8.780,170.800 8.963,170.800 9.326 C 170.800 9.708,170.346 10.099,169.718 10.256 C 168.554 10.549,166.800 12.082,166.800 12.808 C 166.800 13.052,165.900 14.129,164.800 15.200 C 163.700 16.271,162.800 17.430,162.800 17.774 C 162.800 18.118,162.620 18.400,162.400 18.400 C 162.180 18.400,162.000 18.694,162.000 19.053 C 162.000 19.412,161.669 19.997,161.264 20.353 C 160.859 20.709,160.409 21.482,160.263 22.072 C 160.118 22.662,159.760 23.383,159.467 23.676 C 159.175 23.968,159.010 24.431,159.101 24.704 C 159.297 25.290,158.340 27.600,157.902 27.600 C 157.736 27.600,157.600 28.320,157.600 29.200 C 157.600 30.080,157.420 30.800,157.200 30.800 C 156.980 30.800,156.800 31.700,156.800 32.800 C 156.800 33.900,156.620 34.800,156.400 34.800 C 156.149 34.800,156.000 37.400,156.000 41.800 C 156.000 46.200,156.149 48.800,156.400 48.800 C 156.620 48.800,156.800 49.700,156.800 50.800 C 156.800 51.900,156.980 52.800,157.200 52.800 C 157.420 52.800,157.600 53.340,157.600 54.000 C 157.600 54.660,157.780 55.200,158.000 55.200 C 158.220 55.200,158.400 55.740,158.400 56.400 C 158.400 57.060,158.601 57.600,158.847 57.600 C 159.097 57.600,159.216 58.004,159.117 58.521 C 159.020 59.028,159.177 59.663,159.466 59.932 C 159.754 60.202,160.111 60.913,160.259 61.511 C 160.407 62.110,160.859 62.891,161.264 63.247 C 161.669 63.603,162.000 64.148,162.000 64.459 C 162.000 64.769,162.360 65.283,162.800 65.600 C 163.240 65.917,163.600 66.419,163.600 66.714 C 163.600 67.010,164.500 68.129,165.600 69.200 C 166.700 70.271,167.600 71.353,167.600 71.603 C 167.600 72.176,168.605 73.200,169.168 73.200 C 169.598 73.200,170.948 74.249,172.641 75.900 C 173.148 76.395,173.830 76.800,174.155 76.800 C 174.480 76.800,174.860 77.160,175.000 77.600 C 175.140 78.040,175.602 78.400,176.027 78.400 C 176.452 78.400,176.800 78.580,176.800 78.800 C 176.800 79.020,177.160 79.200,177.600 79.200 C 178.040 79.200,178.400 79.380,178.400 79.600 C 178.400 79.820,178.760 80.000,179.200 80.000 C 179.640 80.000,180.000 80.180,180.000 80.400 C 180.000 80.620,180.360 80.800,180.800 80.800 C 181.240 80.800,181.600 80.980,181.600 81.200 C 181.600 81.420,182.140 81.600,182.800 81.600 C 183.460 81.600,184.000 81.780,184.000 82.000 C 184.000 82.220,184.720 82.400,185.600 82.400 C 186.480 82.400,187.200 82.580,187.200 82.800 C 187.200 83.020,187.920 83.200,188.800 83.200 C 189.680 83.200,190.400 83.380,190.400 83.600 C 190.400 83.853,193.267 84.000,198.200 84.000 C 203.133 84.000,206.000 83.853,206.000 83.600 C 206.000 83.380,206.630 83.200,207.400 83.200 C 208.170 83.200,208.800 83.020,208.800 82.800 C 208.800 82.580,209.520 82.400,210.400 82.400 C 211.280 82.400,212.000 82.220,212.000 82.000 C 212.000 81.780,212.360 81.600,212.800 81.600 C 213.240 81.600,213.600 81.420,213.600 81.200 C 213.600 80.980,214.140 80.800,214.800 80.800 C 215.460 80.800,216.000 80.620,216.000 80.400 C 216.000 80.180,216.360 80.000,216.800 80.000 C 217.240 80.000,217.600 79.820,217.600 79.600 C 217.600 79.380,217.920 79.200,218.312 79.200 C 218.703 79.200,219.283 78.840,219.600 78.400 C 219.917 77.960,220.425 77.600,220.728 77.600 C 221.031 77.600,221.783 77.060,222.400 76.400 C 223.017 75.740,223.730 75.200,223.985 75.200 C 224.571 75.200,231.600 68.146,231.600 67.558 C 231.600 67.317,232.140 66.617,232.800 66.000 C 233.460 65.383,234.000 64.591,234.000 64.240 C 234.000 63.888,234.180 63.600,234.400 63.600 C 234.620 63.600,234.800 63.240,234.800 62.800 C 234.800 62.360,234.980 62.000,235.200 62.000 C 235.420 62.000,235.600 61.640,235.600 61.200 C 235.600 60.760,235.780 60.400,236.000 60.400 C 236.220 60.400,236.400 60.040,236.400 59.600 C 236.400 59.160,236.580 58.800,236.800 58.800 C 237.020 58.800,237.200 58.530,237.200 58.200 C 237.200 57.870,237.380 57.600,237.600 57.600 C 237.820 57.600,238.000 57.060,238.000 56.400 C 238.000 55.740,238.180 55.200,238.400 55.200 C 238.620 55.200,238.800 54.480,238.800 53.600 C 238.800 52.720,238.980 52.000,239.200 52.000 C 239.422 52.000,239.600 50.933,239.600 49.600 C 239.600 48.267,239.778 47.200,240.000 47.200 C 240.247 47.200,240.400 45.133,240.400 41.800 C 240.400 38.467,240.247 36.400,240.000 36.400 C 239.778 36.400,239.600 35.333,239.600 34.000 C 239.600 32.667,239.422 31.600,239.200 31.600 C 238.980 31.600,238.800 30.880,238.800 30.000 C 238.800 29.120,238.620 28.400,238.400 28.400 C 238.180 28.400,238.000 27.860,238.000 27.200 C 238.000 26.540,237.820 26.000,237.600 26.000 C 237.380 26.000,237.200 25.730,237.200 25.400 C 237.200 25.070,237.020 24.800,236.800 24.800 C 236.580 24.800,236.400 24.440,236.400 24.000 C 236.400 23.560,236.220 23.200,236.000 23.200 C 235.780 23.200,235.600 22.840,235.600 22.400 C 235.600 21.960,235.420 21.600,235.200 21.600 C 234.980 21.600,234.800 21.240,234.800 20.800 C 234.800 20.360,234.620 20.000,234.400 20.000 C 234.180 20.000,234.000 19.680,234.000 19.288 C 234.000 18.897,233.640 18.317,233.200 18.000 C 232.760 17.683,232.400 17.181,232.400 16.886 C 232.400 16.590,231.500 15.471,230.400 14.400 C 229.300 13.329,228.400 12.170,228.400 11.826 C 228.400 11.482,228.103 11.200,227.740 11.200 C 227.377 11.200,226.315 10.390,225.380 9.400 C 224.444 8.410,223.464 7.600,223.200 7.600 C 222.937 7.600,222.217 7.060,221.600 6.400 C 220.983 5.740,220.191 5.200,219.840 5.200 C 219.488 5.200,219.200 5.020,219.200 4.800 C 219.200 4.580,218.840 4.400,218.400 4.400 C 217.960 4.400,217.600 4.220,217.600 4.000 C 217.600 3.780,217.240 3.600,216.800 3.600 C 216.360 3.600,216.000 3.420,216.000 3.200 C 216.000 2.980,215.640 2.800,215.200 2.800 C 214.760 2.800,214.400 2.620,214.400 2.400 C 214.400 2.180,213.860 2.000,213.200 2.000 C 212.540 2.000,212.000 1.820,212.000 1.600 C 212.000 1.380,211.475 1.200,210.833 1.200 C 210.192 1.200,209.592 0.975,209.500 0.700 C 209.333 0.199,192.188 -0.143,188.100 0.273 M168.400 95.200 C 168.400 95.435,167.008 95.600,165.024 95.600 C 163.167 95.600,161.536 95.780,161.400 96.000 C 161.264 96.220,160.533 96.400,159.776 96.400 C 159.019 96.400,158.400 96.580,158.400 96.800 C 158.400 97.020,157.680 97.200,156.800 97.200 C 155.920 97.200,155.200 97.380,155.200 97.600 C 155.200 97.820,154.840 98.000,154.400 98.000 C 153.960 98.000,153.600 98.180,153.600 98.400 C 153.600 98.620,153.060 98.800,152.400 98.800 C 151.740 98.800,151.200 98.980,151.200 99.200 C 151.200 99.420,150.840 99.600,150.400 99.600 C 149.960 99.600,149.600 99.780,149.600 100.000 C 149.600 100.220,149.240 100.400,148.800 100.400 C 148.360 100.400,148.000 100.580,148.000 100.800 C 148.000 101.020,147.640 101.200,147.200 101.200 C 146.760 101.200,146.400 101.380,146.400 101.600 C 146.400 101.820,146.080 102.000,145.688 102.000 C 145.297 102.000,144.717 102.360,144.400 102.800 C 144.083 103.240,143.546 103.600,143.208 103.600 C 142.869 103.600,142.368 103.960,142.093 104.400 C 141.818 104.840,141.401 105.200,141.165 105.200 C 140.930 105.200,140.046 105.920,139.200 106.800 C 138.354 107.680,137.379 108.400,137.031 108.400 C 136.684 108.400,136.400 108.591,136.400 108.824 C 136.400 109.057,136.220 109.136,136.000 109.000 C 135.780 108.864,135.600 109.033,135.600 109.376 C 135.600 109.719,135.432 110.000,135.227 110.000 C 134.684 110.000,130.800 113.865,130.800 114.405 C 130.800 114.657,130.080 115.554,129.200 116.400 C 128.320 117.246,127.600 118.193,127.600 118.507 C 127.600 118.820,127.252 119.391,126.827 119.776 C 126.402 120.160,126.151 120.728,126.270 121.038 C 126.402 121.383,126.227 121.600,125.816 121.600 C 125.356 121.600,125.217 121.823,125.372 122.312 C 125.513 122.757,125.298 123.241,124.799 123.601 C 124.360 123.917,124.000 124.407,124.000 124.688 C 124.000 124.970,123.820 125.200,123.600 125.200 C 123.380 125.200,123.200 125.560,123.200 126.000 C 123.200 126.440,123.020 126.800,122.800 126.800 C 122.580 126.800,122.400 127.160,122.400 127.600 C 122.400 128.040,122.220 128.400,122.000 128.400 C 121.780 128.400,121.600 128.940,121.600 129.600 C 121.600 130.260,121.420 130.800,121.200 130.800 C 120.980 130.800,120.800 131.160,120.800 131.600 C 120.800 132.040,120.620 132.400,120.400 132.400 C 120.180 132.400,120.000 132.940,120.000 133.600 C 120.000 134.260,119.820 134.800,119.600 134.800 C 119.380 134.800,119.200 135.520,119.200 136.400 C 119.200 137.280,119.020 138.000,118.800 138.000 C 118.580 138.000,118.400 138.720,118.400 139.600 C 118.400 140.480,118.220 141.200,118.000 141.200 C 117.780 141.200,117.600 142.190,117.600 143.400 C 117.600 144.610,117.420 145.600,117.200 145.600 C 116.967 145.600,116.800 146.933,116.800 148.800 C 116.800 150.667,116.633 152.000,116.400 152.000 C 116.171 152.000,116.000 153.200,116.000 154.800 C 116.000 156.400,115.829 157.600,115.600 157.600 C 115.374 157.600,115.200 158.733,115.200 160.200 C 115.200 161.667,115.026 162.800,114.800 162.800 C 114.571 162.800,114.400 164.000,114.400 165.600 C 114.400 167.200,114.229 168.400,114.000 168.400 C 113.771 168.400,113.600 169.600,113.600 171.200 C 113.600 172.800,113.429 174.000,113.200 174.000 C 112.974 174.000,112.800 175.133,112.800 176.600 C 112.800 178.067,112.626 179.200,112.400 179.200 C 112.171 179.200,112.000 180.400,112.000 182.000 C 112.000 183.600,111.829 184.800,111.600 184.800 C 111.371 184.800,111.200 186.000,111.200 187.600 C 111.200 189.200,111.029 190.400,110.800 190.400 C 110.574 190.400,110.400 191.533,110.400 193.000 C 110.400 194.467,110.226 195.600,110.000 195.600 C 109.771 195.600,109.600 196.800,109.600 198.400 C 109.600 199.940,109.465 201.200,109.300 201.199 C 109.135 201.199,109.060 202.459,109.133 203.999 C 109.219 205.823,109.115 206.800,108.833 206.800 C 108.567 206.800,108.400 207.802,108.400 209.400 C 108.400 210.867,108.226 212.000,108.000 212.000 C 107.771 212.000,107.600 213.200,107.600 214.800 C 107.600 216.400,107.771 217.600,108.000 217.600 C 108.220 217.600,108.400 218.140,108.400 218.800 C 108.400 219.460,108.593 220.000,108.829 220.000 C 109.065 220.000,109.193 220.315,109.113 220.700 C 108.935 221.553,112.640 225.200,113.685 225.200 C 114.078 225.200,114.400 225.380,114.400 225.600 C 114.400 225.820,114.720 226.000,115.112 226.000 C 115.503 226.000,116.083 226.360,116.400 226.800 C 116.717 227.240,117.257 227.600,117.600 227.600 C 117.943 227.600,118.483 227.960,118.800 228.400 C 119.117 228.840,119.697 229.200,120.088 229.200 C 120.480 229.200,120.800 229.380,120.800 229.600 C 120.800 229.820,121.120 230.000,121.512 230.000 C 121.903 230.000,122.483 230.360,122.800 230.800 C 123.117 231.240,123.685 231.600,124.061 231.600 C 124.438 231.600,124.860 231.960,125.000 232.400 C 125.140 232.840,125.514 233.200,125.832 233.200 C 126.580 233.200,128.015 234.010,128.843 234.900 C 129.201 235.285,129.748 235.600,130.059 235.600 C 130.369 235.600,130.883 235.960,131.200 236.400 C 131.517 236.840,132.097 237.200,132.488 237.200 C 132.880 237.200,133.200 237.380,133.200 237.600 C 133.200 237.820,133.520 238.000,133.912 238.000 C 134.303 238.000,134.883 238.360,135.200 238.800 C 135.517 239.240,136.057 239.600,136.400 239.600 C 136.743 239.600,137.283 239.960,137.600 240.400 C 137.917 240.840,138.497 241.200,138.888 241.200 C 139.435 241.200,139.600 241.525,139.600 242.600 C 139.600 243.370,139.780 244.000,140.000 244.000 C 140.229 244.000,140.400 245.200,140.400 246.800 C 140.400 248.340,140.557 249.600,140.749 249.600 C 140.940 249.600,141.227 251.939,141.385 254.799 C 141.543 257.658,141.836 260.099,142.036 260.222 C 142.236 260.346,142.400 261.697,142.400 263.224 C 142.400 264.808,142.572 266.000,142.800 266.000 C 143.029 266.000,143.200 267.200,143.200 268.800 C 143.200 270.400,143.371 271.600,143.600 271.600 C 143.826 271.600,144.000 272.733,144.000 274.200 C 144.000 275.667,144.174 276.800,144.400 276.800 C 144.629 276.800,144.800 278.000,144.800 279.600 C 144.800 281.200,144.971 282.400,145.200 282.400 C 145.429 282.400,145.600 283.600,145.600 285.200 C 145.600 286.800,145.771 288.000,146.000 288.000 C 146.226 288.000,146.400 289.133,146.400 290.600 C 146.400 292.067,146.574 293.200,146.800 293.200 C 147.029 293.200,147.200 294.400,147.200 296.000 C 147.200 297.600,147.371 298.800,147.600 298.800 C 147.829 298.800,148.000 300.000,148.000 301.600 C 148.000 303.200,148.171 304.400,148.400 304.400 C 148.626 304.400,148.800 305.533,148.800 307.000 C 148.800 308.467,148.974 309.600,149.200 309.600 C 149.429 309.600,149.600 310.800,149.600 312.400 C 149.600 314.000,149.771 315.200,150.000 315.200 C 150.229 315.200,150.400 316.400,150.400 318.000 C 150.400 319.600,150.571 320.800,150.800 320.800 C 151.026 320.800,151.200 321.933,151.200 323.400 C 151.200 324.867,151.374 326.000,151.600 326.000 C 151.829 326.000,152.000 327.200,152.000 328.800 C 152.000 330.400,152.171 331.600,152.400 331.600 C 152.620 331.600,152.800 332.500,152.800 333.600 C 152.800 334.700,152.980 335.600,153.200 335.600 C 153.420 335.600,153.600 336.320,153.600 337.200 C 153.600 338.080,153.780 338.800,154.000 338.800 C 154.220 338.800,154.400 339.160,154.400 339.600 C 154.400 340.040,154.580 340.400,154.800 340.400 C 155.020 340.400,155.200 340.670,155.200 341.000 C 155.200 341.330,155.380 341.600,155.600 341.600 C 155.820 341.600,156.000 341.960,156.000 342.400 C 156.000 342.840,156.180 343.200,156.400 343.200 C 156.620 343.200,156.800 343.520,156.800 343.912 C 156.800 344.303,157.160 344.883,157.600 345.200 C 158.040 345.517,158.400 346.097,158.400 346.488 C 158.400 346.880,158.610 347.200,158.867 347.200 C 159.123 347.200,159.236 347.297,159.118 347.416 C 158.827 347.706,162.249 351.200,162.825 351.200 C 163.075 351.200,163.783 351.740,164.400 352.400 C 165.017 353.060,165.809 353.600,166.160 353.600 C 166.512 353.600,166.800 353.780,166.800 354.000 C 166.800 354.220,167.160 354.400,167.600 354.400 C 168.040 354.400,168.400 354.580,168.400 354.800 C 168.400 355.020,168.760 355.200,169.200 355.200 C 169.640 355.200,170.000 355.380,170.000 355.600 C 170.000 355.820,170.540 356.000,171.200 356.000 C 171.860 356.000,172.400 356.180,172.400 356.400 C 172.400 356.620,172.940 356.800,173.600 356.800 C 174.260 356.800,174.800 356.980,174.800 357.200 C 174.800 357.462,182.867 357.600,198.200 357.600 C 213.533 357.600,221.600 357.462,221.600 357.200 C 221.600 356.980,222.039 356.800,222.576 356.800 C 223.113 356.800,223.664 356.620,223.800 356.400 C 223.936 356.180,224.487 356.000,225.024 356.000 C 225.561 356.000,226.000 355.820,226.000 355.600 C 226.000 355.380,226.360 355.200,226.800 355.200 C 227.240 355.200,227.600 355.020,227.600 354.800 C 227.600 354.580,227.960 354.400,228.400 354.400 C 228.840 354.400,229.200 354.220,229.200 354.000 C 229.200 353.780,229.488 353.600,229.840 353.600 C 230.191 353.600,230.983 353.060,231.600 352.400 C 232.217 351.740,232.925 351.200,233.174 351.200 C 233.763 351.200,236.400 348.563,236.400 347.974 C 236.400 347.725,236.940 347.017,237.600 346.400 C 238.260 345.783,238.800 345.031,238.800 344.728 C 238.800 344.425,239.160 343.917,239.600 343.600 C 240.040 343.283,240.400 342.718,240.400 342.345 C 240.400 341.972,240.592 341.603,240.826 341.525 C 241.060 341.447,241.354 340.622,241.478 339.691 C 241.603 338.761,241.862 338.000,242.053 338.000 C 242.244 338.000,242.400 337.280,242.400 336.400 C 242.400 335.520,242.580 334.800,242.800 334.800 C 243.020 334.800,243.200 333.900,243.200 332.800 C 243.200 331.700,243.380 330.800,243.600 330.800 C 243.829 330.800,244.000 329.600,244.000 328.000 C 244.000 326.400,244.171 325.200,244.400 325.200 C 244.626 325.200,244.800 324.067,244.800 322.600 C 244.800 321.133,244.974 320.000,245.200 320.000 C 245.429 320.000,245.600 318.800,245.600 317.200 C 245.600 315.600,245.771 314.400,246.000 314.400 C 246.229 314.400,246.400 313.200,246.400 311.600 C 246.400 310.000,246.571 308.800,246.800 308.800 C 247.031 308.800,247.200 307.533,247.200 305.800 C 247.200 304.067,247.369 302.800,247.600 302.800 C 247.829 302.800,248.000 301.600,248.000 300.000 C 248.000 298.400,248.171 297.200,248.400 297.200 C 248.629 297.200,248.800 296.000,248.800 294.400 C 248.800 292.800,248.971 291.600,249.200 291.600 C 249.426 291.600,249.600 290.467,249.600 289.000 C 249.600 287.533,249.774 286.400,250.000 286.400 C 250.229 286.400,250.400 285.200,250.400 283.600 C 250.400 282.000,250.571 280.800,250.800 280.800 C 251.029 280.800,251.200 279.600,251.200 278.000 C 251.200 276.400,251.371 275.200,251.600 275.200 C 251.826 275.200,252.000 274.067,252.000 272.600 C 252.000 271.133,252.174 270.000,252.400 270.000 C 252.629 270.000,252.800 268.800,252.800 267.200 C 252.800 265.600,252.971 264.400,253.200 264.400 C 253.429 264.400,253.600 263.200,253.600 261.600 C 253.600 260.000,253.771 258.800,254.000 258.800 C 254.226 258.800,254.400 257.667,254.400 256.200 C 254.400 254.733,254.574 253.600,254.800 253.600 C 255.029 253.600,255.200 252.400,255.200 250.800 C 255.200 249.200,255.371 248.000,255.600 248.000 C 255.829 248.000,256.000 246.800,256.000 245.200 C 256.000 243.660,256.159 242.400,256.353 242.400 C 256.548 242.400,256.804 242.027,256.924 241.570 C 257.043 241.114,257.514 240.643,257.970 240.524 C 258.427 240.404,258.800 240.148,258.800 239.953 C 258.800 239.759,259.120 239.600,259.512 239.600 C 259.903 239.600,260.483 239.240,260.800 238.800 C 261.117 238.360,261.657 238.000,262.000 238.000 C 262.343 238.000,262.883 237.640,263.200 237.200 C 263.517 236.760,264.097 236.400,264.488 236.400 C 264.880 236.400,265.200 236.220,265.200 236.000 C 265.200 235.780,265.520 235.600,265.912 235.600 C 266.303 235.600,266.883 235.240,267.200 234.800 C 267.517 234.360,268.057 234.000,268.400 234.000 C 268.743 234.000,269.283 233.640,269.600 233.200 C 269.917 232.760,270.497 232.400,270.888 232.400 C 271.280 232.400,271.600 232.220,271.600 232.000 C 271.600 231.780,271.920 231.600,272.312 231.600 C 272.703 231.600,273.283 231.240,273.600 230.800 C 273.917 230.360,274.367 230.000,274.600 230.000 C 274.833 230.000,275.283 229.640,275.600 229.200 C 275.917 228.760,276.497 228.400,276.888 228.400 C 277.280 228.400,277.600 228.220,277.600 228.000 C 277.600 227.780,277.920 227.600,278.312 227.600 C 278.703 227.600,279.283 227.240,279.600 226.800 C 279.917 226.360,280.497 226.000,280.888 226.000 C 281.280 226.000,281.600 225.823,281.600 225.608 C 281.600 225.392,282.084 225.094,282.676 224.945 C 283.941 224.628,286.400 222.296,286.400 221.413 C 286.400 221.076,286.580 220.800,286.800 220.800 C 287.020 220.800,287.200 220.440,287.200 220.000 C 287.200 219.560,287.380 219.200,287.600 219.200 C 287.848 219.200,288.000 217.000,288.000 213.400 C 288.000 209.800,287.848 207.600,287.600 207.600 C 287.371 207.600,287.200 206.400,287.200 204.800 C 287.200 203.200,287.029 202.000,286.800 202.000 C 286.571 202.000,286.400 200.800,286.400 199.200 C 286.400 197.600,286.229 196.400,286.000 196.400 C 285.774 196.400,285.600 195.267,285.600 193.800 C 285.600 192.333,285.426 191.200,285.200 191.200 C 284.971 191.200,284.800 190.000,284.800 188.400 C 284.800 186.800,284.629 185.600,284.400 185.600 C 284.171 185.600,284.000 184.400,284.000 182.800 C 284.000 181.200,283.829 180.000,283.600 180.000 C 283.374 180.000,283.200 178.867,283.200 177.400 C 283.200 175.933,283.026 174.800,282.800 174.800 C 282.571 174.800,282.400 173.600,282.400 172.000 C 282.400 170.400,282.229 169.200,282.000 169.200 C 281.771 169.200,281.600 168.000,281.600 166.400 C 281.600 164.800,281.429 163.600,281.200 163.600 C 280.974 163.600,280.800 162.467,280.800 161.000 C 280.800 159.533,280.626 158.400,280.400 158.400 C 280.171 158.400,280.000 157.200,280.000 155.600 C 280.000 154.000,279.829 152.800,279.600 152.800 C 279.371 152.800,279.200 151.600,279.200 150.000 C 279.200 148.400,279.029 147.200,278.800 147.200 C 278.575 147.200,278.400 146.075,278.400 144.624 C 278.400 143.207,278.220 141.936,278.000 141.800 C 277.780 141.664,277.600 140.753,277.600 139.776 C 277.600 138.799,277.420 138.000,277.200 138.000 C 276.980 138.000,276.800 137.460,276.800 136.800 C 276.800 136.140,276.620 135.600,276.400 135.600 C 276.180 135.600,276.000 135.060,276.000 134.400 C 276.000 133.740,275.843 133.200,275.652 133.200 C 275.460 133.200,275.184 132.300,275.038 131.200 C 274.892 130.100,274.599 129.200,274.386 129.200 C 274.174 129.200,274.000 128.660,274.000 128.000 C 274.000 127.340,273.820 126.800,273.600 126.800 C 273.380 126.800,273.200 126.532,273.200 126.203 C 273.200 125.875,272.840 125.382,272.400 125.107 C 271.960 124.832,271.600 124.291,271.600 123.904 C 271.600 123.517,271.420 123.200,271.200 123.200 C 270.980 123.200,270.800 122.880,270.800 122.488 C 270.800 122.097,270.440 121.517,270.000 121.200 C 269.560 120.883,269.200 120.343,269.200 120.000 C 269.200 119.657,268.840 119.117,268.400 118.800 C 267.960 118.483,267.600 117.986,267.600 117.696 C 267.600 117.406,265.980 115.563,264.000 113.600 C 262.020 111.637,260.400 109.771,260.400 109.453 C 260.400 109.072,260.127 108.946,259.600 109.084 C 259.160 109.199,258.800 109.111,258.800 108.889 C 258.800 108.305,256.566 106.000,256.000 106.000 C 255.737 106.000,255.017 105.460,254.400 104.800 C 253.783 104.140,252.991 103.600,252.640 103.600 C 252.288 103.600,252.000 103.420,252.000 103.200 C 252.000 102.980,251.680 102.800,251.288 102.800 C 250.897 102.800,250.317 102.440,250.000 102.000 C 249.683 101.560,249.103 101.200,248.712 101.200 C 248.320 101.200,248.000 101.020,248.000 100.800 C 248.000 100.580,247.640 100.400,247.200 100.400 C 246.760 100.400,246.400 100.220,246.400 100.000 C 246.400 99.780,246.040 99.600,245.600 99.600 C 245.160 99.600,244.800 99.420,244.800 99.200 C 244.800 98.980,244.260 98.800,243.600 98.800 C 242.940 98.800,242.400 98.620,242.400 98.400 C 242.400 98.180,241.950 98.000,241.400 98.000 C 240.850 98.000,240.400 97.820,240.400 97.600 C 240.400 97.380,239.860 97.200,239.200 97.200 C 238.540 97.200,238.000 97.020,238.000 96.800 C 238.000 96.580,237.280 96.400,236.400 96.400 C 235.520 96.400,234.800 96.220,234.800 96.000 C 234.800 95.763,233.333 95.600,231.200 95.600 C 229.067 95.600,227.600 95.437,227.600 95.200 C 227.600 94.980,226.790 94.800,225.800 94.800 C 224.810 94.800,224.000 94.980,224.000 95.200 C 224.000 95.420,223.640 95.600,223.200 95.600 C 222.760 95.600,222.400 95.780,222.400 96.000 C 222.400 96.220,221.860 96.400,221.200 96.400 C 220.540 96.400,220.000 96.580,220.000 96.800 C 220.000 97.020,219.640 97.200,219.200 97.200 C 218.760 97.200,218.400 97.380,218.400 97.600 C 218.400 97.820,217.860 98.000,217.200 98.000 C 216.540 98.000,216.000 98.180,216.000 98.400 C 216.000 98.620,215.460 98.800,214.800 98.800 C 214.140 98.800,213.600 98.980,213.600 99.200 C 213.600 99.420,212.880 99.600,212.000 99.600 C 211.120 99.600,210.400 99.780,210.400 100.000 C 210.400 100.220,209.590 100.400,208.600 100.400 C 207.610 100.400,206.800 100.580,206.800 100.800 C 206.800 101.054,203.667 101.200,198.200 101.200 C 192.733 101.200,189.600 101.054,189.600 100.800 C 189.600 100.578,188.533 100.400,187.200 100.400 C 185.867 100.400,184.800 100.222,184.800 100.000 C 184.800 99.780,184.260 99.600,183.600 99.600 C 182.940 99.600,182.400 99.420,182.400 99.200 C 182.400 98.980,181.860 98.800,181.200 98.800 C 180.540 98.800,180.000 98.620,180.000 98.400 C 180.000 98.180,179.460 98.000,178.800 98.000 C 178.140 98.000,177.600 97.820,177.600 97.600 C 177.600 97.380,177.060 97.200,176.400 97.200 C 175.740 97.200,175.200 97.020,175.200 96.800 C 175.200 96.580,174.930 96.400,174.600 96.400 C 174.270 96.400,174.000 96.220,174.000 96.000 C 174.000 95.780,173.640 95.600,173.200 95.600 C 172.760 95.600,172.400 95.420,172.400 95.200 C 172.400 94.980,171.500 94.800,170.400 94.800 C 169.300 94.800,168.400 94.980,168.400 95.200 M266.800 291.600 C 266.800 292.700,266.620 293.600,266.400 293.600 C 266.174 293.600,266.000 294.733,266.000 296.200 C 266.000 297.667,265.826 298.800,265.600 298.800 C 265.371 298.800,265.200 300.000,265.200 301.600 C 265.200 303.200,265.029 304.400,264.800 304.400 C 264.574 304.400,264.400 305.533,264.400 307.000 C 264.400 308.467,264.226 309.600,264.000 309.600 C 263.771 309.600,263.600 310.800,263.600 312.400 C 263.600 314.000,263.429 315.200,263.200 315.200 C 262.971 315.200,262.800 316.400,262.800 318.000 C 262.800 319.600,262.629 320.800,262.400 320.800 C 262.171 320.800,262.000 322.008,262.000 323.624 C 262.000 325.404,261.852 326.356,261.600 326.200 C 261.348 326.044,261.200 326.996,261.200 328.776 C 261.200 330.329,261.035 331.600,260.834 331.600 C 260.633 331.600,260.375 332.725,260.262 334.100 C 259.985 337.464,259.577 339.600,259.212 339.600 C 259.046 339.600,258.995 340.041,259.098 340.579 C 259.290 341.583,258.445 344.000,257.902 344.000 C 257.736 344.000,257.600 344.540,257.600 345.200 C 257.600 345.860,257.420 346.400,257.200 346.400 C 256.980 346.400,256.800 346.760,256.800 347.200 C 256.800 347.640,256.620 348.000,256.400 348.000 C 256.180 348.000,256.000 348.360,256.000 348.800 C 256.000 349.240,255.820 349.600,255.600 349.600 C 255.380 349.600,255.200 349.920,255.200 350.312 C 255.200 350.703,254.840 351.283,254.400 351.600 C 253.960 351.917,253.600 352.497,253.600 352.888 C 253.600 353.280,253.420 353.600,253.200 353.600 C 252.980 353.600,252.800 353.888,252.800 354.240 C 252.800 354.591,252.260 355.383,251.600 356.000 C 250.940 356.617,250.400 357.332,250.400 357.589 C 250.400 357.847,250.130 358.327,249.800 358.657 C 249.470 358.987,249.200 359.155,249.200 359.029 C 249.200 358.904,247.881 360.106,246.269 361.701 C 244.656 363.295,243.407 364.735,243.492 364.900 C 243.577 365.065,243.278 365.200,242.827 365.200 C 242.376 365.200,241.782 365.560,241.507 366.000 C 241.232 366.440,240.731 366.800,240.392 366.800 C 240.054 366.800,239.517 367.160,239.200 367.600 C 238.883 368.040,238.303 368.400,237.912 368.400 C 237.520 368.400,237.200 368.580,237.200 368.800 C 237.200 369.020,236.840 369.200,236.400 369.200 C 235.960 369.200,235.600 369.380,235.600 369.600 C 235.600 369.820,235.240 370.000,234.800 370.000 C 234.360 370.000,234.000 370.180,234.000 370.400 C 234.000 370.620,233.640 370.800,233.200 370.800 C 232.760 370.800,232.400 370.980,232.400 371.200 C 232.400 371.420,232.040 371.600,231.600 371.600 C 231.160 371.600,230.800 371.780,230.800 372.000 C 230.800 372.220,230.260 372.400,229.600 372.400 C 228.940 372.400,228.400 372.580,228.400 372.800 C 228.400 373.020,227.961 373.200,227.424 373.200 C 226.887 373.200,226.336 373.380,226.200 373.600 C 226.064 373.820,225.333 374.000,224.576 374.000 C 223.819 374.000,223.200 374.180,223.200 374.400 C 223.200 374.662,214.600 374.800,198.200 374.800 C 181.800 374.800,173.200 374.662,173.200 374.400 C 173.200 374.180,172.480 374.000,171.600 374.000 C 170.720 374.000,170.000 373.820,170.000 373.600 C 170.000 373.380,169.460 373.200,168.800 373.200 C 168.140 373.200,167.600 373.020,167.600 372.800 C 167.600 372.580,167.060 372.400,166.400 372.400 C 165.740 372.400,165.200 372.220,165.200 372.000 C 165.200 371.780,164.840 371.600,164.400 371.600 C 163.960 371.600,163.600 371.420,163.600 371.200 C 163.600 370.980,163.240 370.800,162.800 370.800 C 162.360 370.800,162.000 370.620,162.000 370.400 C 162.000 370.180,161.640 370.000,161.200 370.000 C 160.760 370.000,160.400 369.820,160.400 369.600 C 160.400 369.380,160.040 369.200,159.600 369.200 C 159.160 369.200,158.800 369.020,158.800 368.800 C 158.800 368.580,158.530 368.400,158.200 368.400 C 157.870 368.400,157.600 368.220,157.600 368.000 C 157.600 367.780,157.280 367.600,156.888 367.600 C 156.497 367.600,155.917 367.240,155.600 366.800 C 155.283 366.360,154.790 366.000,154.505 366.000 C 154.220 366.000,152.637 364.650,150.987 363.000 C 149.337 361.350,147.810 360.000,147.594 360.000 C 147.377 360.000,147.200 359.700,147.200 359.333 C 147.200 358.967,147.091 358.776,146.958 358.909 C 146.629 359.238,144.800 357.370,144.800 356.706 C 144.800 356.415,144.440 355.917,144.000 355.600 C 143.560 355.283,143.200 354.769,143.200 354.459 C 143.200 354.148,142.869 353.603,142.464 353.247 C 142.059 352.891,141.606 352.105,141.456 351.500 C 141.307 350.895,141.008 350.400,140.792 350.400 C 140.577 350.400,140.400 350.040,140.400 349.600 C 140.400 349.160,140.220 348.800,140.000 348.800 C 139.780 348.800,139.600 348.260,139.600 347.600 C 139.600 346.940,139.420 346.400,139.200 346.400 C 138.980 346.400,138.800 346.040,138.800 345.600 C 138.800 345.160,138.620 344.800,138.400 344.800 C 138.180 344.800,138.000 344.249,138.000 343.576 C 138.000 342.863,137.833 342.456,137.600 342.600 C 137.367 342.744,137.200 342.337,137.200 341.624 C 137.200 340.951,137.020 340.400,136.800 340.400 C 136.580 340.400,136.400 339.500,136.400 338.400 C 136.400 337.300,136.220 336.400,136.000 336.400 C 135.780 336.400,135.600 335.500,135.600 334.400 C 135.600 333.300,135.420 332.400,135.200 332.400 C 134.975 332.400,134.800 331.275,134.800 329.824 C 134.800 328.407,134.620 327.136,134.400 327.000 C 134.180 326.864,134.000 325.593,134.000 324.176 C 134.000 322.725,133.825 321.600,133.600 321.600 C 133.371 321.600,133.200 320.400,133.200 318.800 C 133.200 317.200,133.029 316.000,132.800 316.000 C 132.571 316.000,132.400 314.800,132.400 313.200 C 132.400 311.600,132.229 310.400,132.000 310.400 C 131.774 310.400,131.600 309.267,131.600 307.800 C 131.600 306.333,131.426 305.200,131.200 305.200 C 130.971 305.200,130.800 304.000,130.800 302.400 C 130.800 300.800,130.629 299.600,130.400 299.600 C 130.171 299.600,130.000 298.400,130.000 296.800 C 130.000 295.200,129.829 294.000,129.600 294.000 C 129.380 294.000,129.200 293.190,129.200 292.200 L 129.200 290.400 127.000 290.400 C 125.790 290.400,124.800 290.557,124.800 290.748 C 124.800 290.940,123.495 291.225,121.900 291.382 C 120.305 291.540,118.814 291.822,118.587 292.011 C 118.359 292.200,117.324 292.398,116.287 292.452 C 115.249 292.506,114.400 292.696,114.400 292.875 C 114.400 293.054,113.680 293.200,112.800 293.200 C 111.920 293.200,111.200 293.380,111.200 293.600 C 111.200 293.820,110.761 294.000,110.224 294.000 C 109.687 294.000,109.136 294.180,109.000 294.400 C 108.864 294.620,108.313 294.800,107.776 294.800 C 107.239 294.800,106.800 294.980,106.800 295.200 C 106.800 295.420,106.080 295.600,105.200 295.600 C 104.320 295.600,103.600 295.780,103.600 296.000 C 103.600 296.220,103.060 296.400,102.400 296.400 C 101.740 296.400,101.200 296.580,101.200 296.800 C 101.200 297.020,100.660 297.200,100.000 297.200 C 99.340 297.200,98.800 297.380,98.800 297.600 C 98.800 297.820,98.260 298.000,97.600 298.000 C 96.940 298.000,96.400 298.180,96.400 298.400 C 96.400 298.620,96.040 298.800,95.600 298.800 C 95.160 298.800,94.800 298.980,94.800 299.200 C 94.800 299.420,94.249 299.600,93.576 299.600 C 92.863 299.600,92.456 299.767,92.600 300.000 C 92.736 300.220,92.477 300.400,92.024 300.400 C 91.571 300.400,91.200 300.580,91.200 300.800 C 91.200 301.020,90.660 301.200,90.000 301.200 C 89.340 301.200,88.800 301.380,88.800 301.600 C 88.800 301.820,88.440 302.000,88.000 302.000 C 87.560 302.000,87.200 302.180,87.200 302.400 C 87.200 302.620,86.660 302.800,86.000 302.800 C 85.340 302.800,84.800 302.980,84.800 303.200 C 84.800 303.420,84.440 303.600,84.000 303.600 C 83.560 303.600,83.200 303.780,83.200 304.000 C 83.200 304.220,82.840 304.400,82.400 304.400 C 81.960 304.400,81.600 304.580,81.600 304.800 C 81.600 305.020,81.240 305.200,80.800 305.200 C 80.360 305.200,80.000 305.380,80.000 305.600 C 80.000 305.820,79.680 306.000,79.288 306.000 C 78.897 306.000,78.317 306.360,78.000 306.800 C 77.683 307.240,77.193 307.600,76.912 307.600 C 76.630 307.600,76.400 307.780,76.400 308.000 C 76.400 308.220,76.040 308.400,75.600 308.400 C 75.160 308.400,74.800 308.591,74.800 308.824 C 74.800 309.057,74.620 309.136,74.400 309.000 C 74.180 308.864,74.000 308.922,74.000 309.128 C 74.000 309.334,73.460 309.727,72.800 310.000 C 72.140 310.273,71.600 310.655,71.600 310.849 C 71.600 311.042,71.316 311.200,70.969 311.200 C 70.621 311.200,69.646 311.920,68.800 312.800 C 67.954 313.680,67.061 314.400,66.814 314.400 C 66.173 314.400,60.114 320.611,59.805 321.585 C 59.662 322.033,59.368 322.400,59.149 322.400 C 58.931 322.400,58.844 322.547,58.955 322.727 C 59.066 322.907,58.807 323.307,58.379 323.615 C 57.950 323.924,57.600 324.407,57.600 324.688 C 57.600 324.970,57.420 325.200,57.200 325.200 C 56.980 325.200,56.800 325.560,56.800 326.000 C 56.800 326.440,56.620 326.800,56.400 326.800 C 56.180 326.800,56.000 327.160,56.000 327.600 C 56.000 328.040,55.820 328.400,55.600 328.400 C 55.380 328.400,55.200 328.760,55.200 329.200 C 55.200 329.640,55.020 330.000,54.800 330.000 C 54.580 330.000,54.400 330.360,54.400 330.800 C 54.400 331.240,54.220 331.600,54.000 331.600 C 53.780 331.600,53.600 332.500,53.600 333.600 C 53.600 334.700,53.420 335.600,53.200 335.600 C 52.949 335.600,52.800 338.067,52.800 342.200 C 52.800 346.333,52.949 348.800,53.200 348.800 C 53.420 348.800,53.600 349.520,53.600 350.400 C 53.600 351.280,53.780 352.000,54.000 352.000 C 54.220 352.000,54.400 352.540,54.400 353.200 C 54.400 353.860,54.580 354.400,54.800 354.400 C 55.020 354.400,55.200 354.760,55.200 355.200 C 55.200 355.640,55.380 356.000,55.600 356.000 C 55.820 356.000,56.000 356.320,56.000 356.712 C 56.000 357.103,56.360 357.683,56.800 358.000 C 57.240 358.317,57.600 358.741,57.600 358.941 C 57.600 359.142,57.981 359.637,58.447 360.041 C 58.937 360.465,59.196 361.035,59.060 361.388 C 58.915 361.766,59.050 362.000,59.413 362.000 C 59.736 362.000,60.000 362.174,60.000 362.387 C 60.000 362.599,60.630 363.403,61.400 364.173 C 62.170 364.943,62.800 365.765,62.800 366.000 C 62.800 366.570,65.452 369.200,66.026 369.200 C 66.275 369.200,66.983 369.740,67.600 370.400 C 68.217 371.060,68.937 371.600,69.200 371.600 C 69.463 371.600,70.183 372.140,70.800 372.800 C 71.417 373.460,72.209 374.000,72.560 374.000 C 72.912 374.000,73.200 374.177,73.200 374.392 C 73.200 374.608,73.650 374.898,74.200 375.036 C 74.750 375.174,75.200 375.447,75.200 375.643 C 75.200 375.840,75.520 376.000,75.912 376.000 C 76.303 376.000,76.883 376.360,77.200 376.800 C 77.517 377.240,78.097 377.600,78.488 377.600 C 78.880 377.600,79.200 377.780,79.200 378.000 C 79.200 378.220,79.560 378.400,80.000 378.400 C 80.440 378.400,80.800 378.580,80.800 378.800 C 80.800 379.020,81.160 379.200,81.600 379.200 C 82.040 379.200,82.400 379.380,82.400 379.600 C 82.400 379.820,82.760 380.000,83.200 380.000 C 83.640 380.000,84.000 380.180,84.000 380.400 C 84.000 380.620,84.360 380.800,84.800 380.800 C 85.240 380.800,85.600 380.980,85.600 381.200 C 85.600 381.420,85.960 381.600,86.400 381.600 C 86.840 381.600,87.200 381.780,87.200 382.000 C 87.200 382.220,87.740 382.400,88.400 382.400 C 89.060 382.400,89.600 382.580,89.600 382.800 C 89.600 383.020,89.960 383.200,90.400 383.200 C 90.840 383.200,91.200 383.380,91.200 383.600 C 91.200 383.820,91.751 384.000,92.424 384.000 C 93.137 384.000,93.544 384.167,93.400 384.400 C 93.264 384.620,93.523 384.800,93.976 384.800 C 94.429 384.800,94.800 384.980,94.800 385.200 C 94.800 385.420,95.340 385.600,96.000 385.600 C 96.660 385.600,97.200 385.780,97.200 386.000 C 97.200 386.220,97.740 386.400,98.400 386.400 C 99.060 386.400,99.600 386.580,99.600 386.800 C 99.600 387.020,100.140 387.200,100.800 387.200 C 101.460 387.200,102.000 387.380,102.000 387.600 C 102.000 387.820,102.540 388.000,103.200 388.000 C 103.860 388.000,104.400 388.180,104.400 388.400 C 104.400 388.620,105.120 388.800,106.000 388.800 C 106.880 388.800,107.600 388.980,107.600 389.200 C 107.600 389.420,108.039 389.600,108.576 389.600 C 109.113 389.600,109.664 389.780,109.800 390.000 C 109.936 390.220,110.667 390.400,111.424 390.400 C 112.181 390.400,112.800 390.561,112.800 390.758 C 112.800 390.955,114.240 391.244,116.000 391.400 C 117.760 391.556,119.200 391.845,119.200 392.042 C 119.200 392.239,119.920 392.400,120.800 392.400 C 121.680 392.400,122.400 392.580,122.400 392.800 C 122.400 393.020,123.199 393.200,124.176 393.200 C 125.153 393.200,126.064 393.380,126.200 393.600 C 126.336 393.820,127.247 394.000,128.224 394.000 C 129.201 394.000,130.000 394.180,130.000 394.400 C 130.000 394.620,130.900 394.800,132.000 394.800 C 133.100 394.800,134.000 394.980,134.000 395.200 C 134.000 395.422,135.067 395.600,136.400 395.600 C 137.733 395.600,138.800 395.778,138.800 396.000 C 138.800 396.220,139.779 396.400,140.976 396.400 C 142.173 396.400,143.264 396.580,143.400 396.800 C 143.536 397.020,144.987 397.200,146.624 397.200 C 148.341 397.200,149.600 397.369,149.600 397.600 C 149.600 397.833,150.933 398.000,152.800 398.000 C 154.667 398.000,156.000 398.167,156.000 398.400 C 156.000 398.641,157.656 398.800,160.167 398.800 C 163.144 398.800,164.381 398.943,164.500 399.300 C 164.632 399.695,172.089 399.800,200.000 399.800 C 227.911 399.800,235.368 399.695,235.500 399.300 C 235.619 398.943,236.856 398.800,239.833 398.800 C 242.344 398.800,244.000 398.641,244.000 398.400 C 244.000 398.167,245.333 398.000,247.200 398.000 C 249.067 398.000,250.400 397.833,250.400 397.600 C 250.400 397.367,251.733 397.200,253.600 397.200 C 255.467 397.200,256.800 397.033,256.800 396.800 C 256.800 396.580,257.790 396.400,259.000 396.400 C 260.210 396.400,261.200 396.220,261.200 396.000 C 261.200 395.778,262.267 395.600,263.600 395.600 C 264.933 395.600,266.000 395.422,266.000 395.200 C 266.000 394.980,266.900 394.800,268.000 394.800 C 269.100 394.800,270.000 394.620,270.000 394.400 C 270.000 394.180,270.900 394.000,272.000 394.000 C 273.100 394.000,274.000 393.820,274.000 393.600 C 274.000 393.380,274.810 393.200,275.800 393.200 C 276.790 393.200,277.600 393.020,277.600 392.800 C 277.600 392.580,278.320 392.400,279.200 392.400 C 280.080 392.400,280.800 392.239,280.800 392.042 C 280.800 391.845,282.240 391.556,284.000 391.400 C 285.760 391.244,287.200 390.955,287.200 390.758 C 287.200 390.561,287.819 390.400,288.576 390.400 C 289.333 390.400,290.064 390.220,290.200 390.000 C 290.336 389.780,290.887 389.600,291.424 389.600 C 291.961 389.600,292.400 389.420,292.400 389.200 C 292.400 388.980,293.120 388.800,294.000 388.800 C 294.880 388.800,295.600 388.620,295.600 388.400 C 295.600 388.180,296.140 388.000,296.800 388.000 C 297.460 388.000,298.000 387.820,298.000 387.600 C 298.000 387.380,298.540 387.200,299.200 387.200 C 299.860 387.200,300.400 387.020,300.400 386.800 C 300.400 386.580,300.940 386.400,301.600 386.400 C 302.260 386.400,302.800 386.220,302.800 386.000 C 302.800 385.780,303.340 385.600,304.000 385.600 C 304.660 385.600,305.200 385.420,305.200 385.200 C 305.200 384.980,305.560 384.800,306.000 384.800 C 306.440 384.800,306.800 384.620,306.800 384.400 C 306.800 384.180,307.250 384.000,307.800 384.000 C 308.350 384.000,308.800 383.820,308.800 383.600 C 308.800 383.380,309.160 383.200,309.600 383.200 C 310.040 383.200,310.400 383.020,310.400 382.800 C 310.400 382.580,310.940 382.400,311.600 382.400 C 312.260 382.400,312.800 382.220,312.800 382.000 C 312.800 381.780,313.160 381.600,313.600 381.600 C 314.040 381.600,314.400 381.420,314.400 381.200 C 314.400 380.980,314.760 380.800,315.200 380.800 C 315.640 380.800,316.000 380.620,316.000 380.400 C 316.000 380.180,316.360 380.000,316.800 380.000 C 317.240 380.000,317.600 379.820,317.600 379.600 C 317.600 379.380,317.960 379.200,318.400 379.200 C 318.840 379.200,319.200 379.020,319.200 378.800 C 319.200 378.580,319.560 378.400,320.000 378.400 C 320.440 378.400,320.800 378.220,320.800 378.000 C 320.800 377.780,321.120 377.600,321.512 377.600 C 321.903 377.600,322.483 377.240,322.800 376.800 C 323.117 376.360,323.697 376.000,324.088 376.000 C 324.480 376.000,324.800 375.840,324.800 375.643 C 324.800 375.447,325.250 375.174,325.800 375.036 C 326.350 374.898,326.800 374.608,326.800 374.392 C 326.800 374.177,327.088 374.000,327.440 374.000 C 327.791 374.000,328.583 373.460,329.200 372.800 C 329.817 372.140,330.537 371.600,330.800 371.600 C 331.063 371.600,331.783 371.060,332.400 370.400 C 333.017 369.740,333.725 369.200,333.974 369.200 C 334.555 369.200,337.200 366.566,337.200 365.987 C 337.200 365.746,338.070 364.700,339.134 363.664 C 340.198 362.628,341.191 361.290,341.342 360.690 C 341.492 360.091,341.792 359.600,342.008 359.600 C 342.223 359.600,342.400 359.370,342.400 359.088 C 342.400 358.807,342.760 358.317,343.200 358.000 C 343.640 357.683,344.000 357.103,344.000 356.712 C 344.000 356.320,344.180 356.000,344.400 356.000 C 344.620 356.000,344.800 355.640,344.800 355.200 C 344.800 354.760,344.980 354.400,345.200 354.400 C 345.420 354.400,345.600 353.860,345.600 353.200 C 345.600 352.540,345.780 352.000,346.000 352.000 C 346.220 352.000,346.400 351.280,346.400 350.400 C 346.400 349.520,346.580 348.800,346.800 348.800 C 347.051 348.800,347.200 346.333,347.200 342.200 C 347.200 338.067,347.051 335.600,346.800 335.600 C 346.580 335.600,346.400 334.880,346.400 334.000 C 346.400 333.120,346.220 332.400,346.000 332.400 C 345.780 332.400,345.600 331.860,345.600 331.200 C 345.600 330.540,345.420 330.000,345.200 330.000 C 344.980 330.000,344.800 329.640,344.800 329.200 C 344.800 328.760,344.620 328.400,344.400 328.400 C 344.180 328.400,344.000 328.040,344.000 327.600 C 344.000 327.160,343.820 326.800,343.600 326.800 C 343.380 326.800,343.200 326.440,343.200 326.000 C 343.200 325.560,343.020 325.200,342.800 325.200 C 342.580 325.200,342.400 325.007,342.400 324.771 C 342.400 324.536,342.175 324.092,341.900 323.785 C 340.711 322.459,340.400 322.009,340.400 321.611 C 340.400 321.051,333.736 314.400,333.174 314.400 C 332.934 314.400,332.046 313.680,331.200 312.800 C 330.354 311.920,329.379 311.200,329.031 311.200 C 328.684 311.200,328.400 311.042,328.400 310.849 C 328.400 310.655,327.860 310.273,327.200 310.000 C 326.540 309.727,326.000 309.334,326.000 309.128 C 326.000 308.922,325.820 308.864,325.600 309.000 C 325.380 309.136,325.200 309.057,325.200 308.824 C 325.200 308.591,324.930 308.400,324.600 308.400 C 324.270 308.400,324.000 308.220,324.000 308.000 C 324.000 307.780,323.640 307.600,323.200 307.600 C 322.760 307.600,322.400 307.420,322.400 307.200 C 322.400 306.980,322.080 306.800,321.688 306.800 C 321.297 306.800,320.717 306.440,320.400 306.000 C 320.083 305.560,319.503 305.200,319.112 305.200 C 318.720 305.200,318.400 305.020,318.400 304.800 C 318.400 304.580,318.040 304.400,317.600 304.400 C 317.160 304.400,316.800 304.220,316.800 304.000 C 316.800 303.780,316.260 303.600,315.600 303.600 C 314.940 303.600,314.400 303.420,314.400 303.200 C 314.400 302.980,314.040 302.800,313.600 302.800 C 313.160 302.800,312.800 302.620,312.800 302.400 C 312.800 302.180,312.440 302.000,312.000 302.000 C 311.560 302.000,311.200 301.820,311.200 301.600 C 311.200 301.380,310.660 301.200,310.000 301.200 C 309.340 301.200,308.800 301.020,308.800 300.800 C 308.800 300.580,308.530 300.400,308.200 300.400 C 307.870 300.400,307.600 300.220,307.600 300.000 C 307.600 299.780,307.060 299.600,306.400 299.600 C 305.740 299.600,305.200 299.420,305.200 299.200 C 305.200 298.980,304.660 298.800,304.000 298.800 C 303.340 298.800,302.800 298.620,302.800 298.400 C 302.800 298.180,302.440 298.000,302.000 298.000 C 301.560 298.000,301.200 297.820,301.200 297.600 C 301.200 297.380,300.660 297.200,300.000 297.200 C 299.340 297.200,298.800 297.020,298.800 296.800 C 298.800 296.580,298.260 296.400,297.600 296.400 C 296.940 296.400,296.400 296.220,296.400 296.000 C 296.400 295.780,295.680 295.600,294.800 295.600 C 293.920 295.600,293.200 295.420,293.200 295.200 C 293.200 294.980,292.761 294.800,292.224 294.800 C 291.687 294.800,291.136 294.620,291.000 294.400 C 290.864 294.180,290.133 294.000,289.376 294.000 C 288.619 294.000,288.000 293.820,288.000 293.600 C 288.000 293.380,287.460 293.200,286.800 293.200 C 286.140 293.200,285.600 293.057,285.600 292.882 C 285.600 292.707,284.934 292.519,284.119 292.464 C 283.305 292.409,282.450 292.210,282.219 292.022 C 281.989 291.835,280.225 291.551,278.300 291.393 C 276.375 291.235,274.800 290.947,274.800 290.753 C 274.800 290.559,274.080 290.400,273.200 290.400 C 272.320 290.400,271.600 290.220,271.600 290.000 C 271.600 289.778,270.533 289.600,269.200 289.600 L 266.800 289.600 266.800 291.600 " stroke="none" fill="#2c5c2c" fill-rule="evenodd"></path><path id="path1" d="M108.931 204.200 C 108.933 205.740,109.005 206.321,109.092 205.491 C 109.179 204.661,109.177 203.401,109.089 202.691 C 109.000 201.981,108.929 202.660,108.931 204.200 M258.768 341.300 C 258.649 342.160,258.710 342.650,258.912 342.448 C 259.105 342.255,259.198 341.581,259.119 340.949 C 258.987 339.891,258.959 339.919,258.768 341.300 " stroke="none" fill="#305c2c" fill-rule="evenodd"></path></g></svg>